<svg width="670" height="480" viewBox="0 0 670 480" fill="none" xmlns="http://www.w3.org/2000/svg">
<rect x="0.5" y="0.5" width="669" height="479" rx="3.5" fill="white" stroke="black"/>
<circle cx="22" cy="22" r="5.5" stroke="black"/>
<circle cx="46" cy="22" r="5.5" stroke="black"/>
<circle cx="70" cy="22" r="5.5" stroke="black"/>
<path d="M193.58 433.175C193.58 431.692 193.911 430.512 194.573 429.633C195.241 428.754 196.152 428.314 197.307 428.314C198.232 428.314 198.997 428.66 199.601 429.352V424.5H202.149V438H199.855L199.732 436.989C199.1 437.78 198.285 438.176 197.289 438.176C196.17 438.176 195.271 437.736 194.591 436.857C193.917 435.973 193.58 434.745 193.58 433.175ZM196.12 433.359C196.12 434.25 196.275 434.933 196.586 435.407C196.896 435.882 197.348 436.119 197.939 436.119C198.725 436.119 199.278 435.788 199.601 435.126V431.373C199.284 430.711 198.736 430.38 197.957 430.38C196.732 430.38 196.12 431.373 196.12 433.359ZM211.527 433.184H212.978V435.231H211.527V438H208.987V435.231H203.74L203.626 433.632L208.961 425.203H211.527V433.184ZM206.157 433.184H208.987V428.666L208.82 428.956L206.157 433.184ZM220.519 438H217.979V428.209L214.946 429.149V427.084L220.246 425.186H220.519V438ZM224.395 433.175C224.395 431.692 224.726 430.512 225.388 429.633C226.056 428.754 226.967 428.314 228.121 428.314C229.047 428.314 229.812 428.66 230.415 429.352V424.5H232.964V438H230.67L230.547 436.989C229.914 437.78 229.1 438.176 228.104 438.176C226.984 438.176 226.085 437.736 225.405 436.857C224.731 435.973 224.395 434.745 224.395 433.175ZM226.935 433.359C226.935 434.25 227.09 434.933 227.4 435.407C227.711 435.882 228.162 436.119 228.754 436.119C229.539 436.119 230.093 435.788 230.415 435.126V431.373C230.099 430.711 229.551 430.38 228.771 430.38C227.547 430.38 226.935 431.373 226.935 433.359ZM243.168 428.604C243.168 429.226 243.013 429.776 242.702 430.257C242.392 430.737 241.964 431.121 241.419 431.408C242.04 431.707 242.532 432.12 242.896 432.647C243.259 433.169 243.44 433.784 243.44 434.493C243.44 435.63 243.054 436.529 242.28 437.191C241.507 437.848 240.455 438.176 239.125 438.176C237.795 438.176 236.74 437.845 235.961 437.183C235.182 436.521 234.792 435.624 234.792 434.493C234.792 433.784 234.974 433.166 235.337 432.639C235.7 432.111 236.189 431.701 236.805 431.408C236.26 431.121 235.832 430.737 235.521 430.257C235.217 429.776 235.064 429.226 235.064 428.604C235.064 427.515 235.428 426.647 236.154 426.003C236.881 425.353 237.868 425.027 239.116 425.027C240.358 425.027 241.343 425.35 242.069 425.994C242.802 426.633 243.168 427.503 243.168 428.604ZM240.892 434.309C240.892 433.752 240.73 433.307 240.408 432.973C240.086 432.639 239.652 432.472 239.107 432.472C238.568 432.472 238.138 432.639 237.815 432.973C237.493 433.301 237.332 433.746 237.332 434.309C237.332 434.854 237.49 435.293 237.807 435.627C238.123 435.961 238.562 436.128 239.125 436.128C239.676 436.128 240.106 435.967 240.417 435.645C240.733 435.322 240.892 434.877 240.892 434.309ZM240.628 428.728C240.628 428.229 240.496 427.831 240.232 427.532C239.969 427.228 239.597 427.075 239.116 427.075C238.642 427.075 238.272 427.222 238.009 427.515C237.745 427.808 237.613 428.212 237.613 428.728C237.613 429.237 237.745 429.647 238.009 429.958C238.272 430.269 238.645 430.424 239.125 430.424C239.605 430.424 239.975 430.269 240.232 429.958C240.496 429.647 240.628 429.237 240.628 428.728ZM249.224 436.128C249.692 436.128 250.073 435.999 250.366 435.741C250.659 435.483 250.812 435.141 250.823 434.713H253.205C253.199 435.357 253.023 435.949 252.678 436.488C252.332 437.021 251.857 437.438 251.254 437.736C250.656 438.029 249.994 438.176 249.268 438.176C247.908 438.176 246.836 437.745 246.051 436.884C245.266 436.017 244.873 434.821 244.873 433.298V433.131C244.873 431.666 245.263 430.497 246.042 429.624C246.821 428.751 247.891 428.314 249.25 428.314C250.439 428.314 251.392 428.654 252.106 429.334C252.827 430.008 253.193 430.907 253.205 432.032H250.823C250.812 431.54 250.659 431.142 250.366 430.837C250.073 430.526 249.687 430.371 249.206 430.371C248.614 430.371 248.166 430.588 247.861 431.021C247.562 431.449 247.413 432.146 247.413 433.113V433.377C247.413 434.355 247.562 435.059 247.861 435.486C248.16 435.914 248.614 436.128 249.224 436.128ZM254.26 433.175C254.26 431.692 254.591 430.512 255.253 429.633C255.921 428.754 256.832 428.314 257.986 428.314C258.912 428.314 259.677 428.66 260.28 429.352V424.5H262.829V438H260.535L260.412 436.989C259.779 437.78 258.965 438.176 257.969 438.176C256.85 438.176 255.95 437.736 255.271 436.857C254.597 435.973 254.26 434.745 254.26 433.175ZM256.8 433.359C256.8 434.25 256.955 434.933 257.266 435.407C257.576 435.882 258.027 436.119 258.619 436.119C259.404 436.119 259.958 435.788 260.28 435.126V431.373C259.964 430.711 259.416 430.38 258.637 430.38C257.412 430.38 256.8 431.373 256.8 433.359ZM270.634 432.885C269.972 433.535 269.198 433.86 268.313 433.86C267.183 433.86 266.277 433.474 265.598 432.7C264.918 431.921 264.578 430.872 264.578 429.554C264.578 428.716 264.76 427.948 265.123 427.251C265.492 426.548 266.005 426.003 266.661 425.616C267.317 425.224 268.056 425.027 268.876 425.027C269.72 425.027 270.47 425.238 271.126 425.66C271.782 426.082 272.292 426.688 272.655 427.479C273.019 428.271 273.203 429.176 273.209 430.195V431.136C273.209 433.269 272.679 434.944 271.618 436.163C270.558 437.382 269.055 438.032 267.109 438.114L266.485 438.123V436.005L267.048 435.996C269.257 435.896 270.452 434.859 270.634 432.885ZM268.938 431.918C269.348 431.918 269.699 431.812 269.992 431.602C270.291 431.391 270.517 431.136 270.669 430.837V429.791C270.669 428.93 270.505 428.262 270.177 427.787C269.849 427.312 269.409 427.075 268.858 427.075C268.349 427.075 267.93 427.31 267.602 427.778C267.273 428.241 267.109 428.824 267.109 429.527C267.109 430.225 267.268 430.799 267.584 431.25C267.906 431.695 268.357 431.918 268.938 431.918ZM283.369 428.604C283.369 429.226 283.214 429.776 282.903 430.257C282.593 430.737 282.165 431.121 281.62 431.408C282.241 431.707 282.733 432.12 283.097 432.647C283.46 433.169 283.642 433.784 283.642 434.493C283.642 435.63 283.255 436.529 282.481 437.191C281.708 437.848 280.656 438.176 279.326 438.176C277.996 438.176 276.941 437.845 276.162 437.183C275.383 436.521 274.993 435.624 274.993 434.493C274.993 433.784 275.175 433.166 275.538 432.639C275.901 432.111 276.391 431.701 277.006 431.408C276.461 431.121 276.033 430.737 275.723 430.257C275.418 429.776 275.266 429.226 275.266 428.604C275.266 427.515 275.629 426.647 276.355 426.003C277.082 425.353 278.069 425.027 279.317 425.027C280.56 425.027 281.544 425.35 282.271 425.994C283.003 426.633 283.369 427.503 283.369 428.604ZM281.093 434.309C281.093 433.752 280.932 433.307 280.609 432.973C280.287 432.639 279.854 432.472 279.309 432.472C278.77 432.472 278.339 432.639 278.017 432.973C277.694 433.301 277.533 433.746 277.533 434.309C277.533 434.854 277.691 435.293 278.008 435.627C278.324 435.961 278.764 436.128 279.326 436.128C279.877 436.128 280.308 435.967 280.618 435.645C280.935 435.322 281.093 434.877 281.093 434.309ZM280.829 428.728C280.829 428.229 280.697 427.831 280.434 427.532C280.17 427.228 279.798 427.075 279.317 427.075C278.843 427.075 278.474 427.222 278.21 427.515C277.946 427.808 277.814 428.212 277.814 428.728C277.814 429.237 277.946 429.647 278.21 429.958C278.474 430.269 278.846 430.424 279.326 430.424C279.807 430.424 280.176 430.269 280.434 429.958C280.697 429.647 280.829 429.237 280.829 428.728ZM286.164 438V430.354H284.749V428.49H286.164V427.682C286.164 426.615 286.469 425.789 287.078 425.203C287.693 424.611 288.552 424.315 289.653 424.315C290.005 424.315 290.436 424.374 290.945 424.491L290.919 426.46C290.708 426.407 290.45 426.381 290.146 426.381C289.19 426.381 288.713 426.829 288.713 427.726V428.49H290.603V430.354H288.713V438H286.164ZM300.429 432.709C300.429 434.479 300.062 435.832 299.33 436.77C298.598 437.707 297.525 438.176 296.113 438.176C294.719 438.176 293.652 437.716 292.914 436.796C292.176 435.876 291.798 434.558 291.78 432.841V430.485C291.78 428.698 292.149 427.342 292.888 426.416C293.632 425.49 294.701 425.027 296.096 425.027C297.49 425.027 298.557 425.487 299.295 426.407C300.033 427.321 300.411 428.637 300.429 430.354V432.709ZM297.889 430.125C297.889 429.064 297.742 428.294 297.449 427.813C297.162 427.327 296.711 427.084 296.096 427.084C295.498 427.084 295.056 427.315 294.769 427.778C294.487 428.235 294.338 428.953 294.32 429.932V433.043C294.32 434.086 294.461 434.862 294.742 435.372C295.029 435.876 295.486 436.128 296.113 436.128C296.734 436.128 297.183 435.885 297.458 435.398C297.733 434.912 297.877 434.168 297.889 433.166V430.125ZM310.765 432.709C310.765 434.479 310.398 435.832 309.666 436.77C308.934 437.707 307.861 438.176 306.449 438.176C305.055 438.176 303.988 437.716 303.25 436.796C302.512 435.876 302.134 434.558 302.116 432.841V430.485C302.116 428.698 302.485 427.342 303.224 426.416C303.968 425.49 305.037 425.027 306.432 425.027C307.826 425.027 308.893 425.487 309.631 426.407C310.369 427.321 310.747 428.637 310.765 430.354V432.709ZM308.225 430.125C308.225 429.064 308.078 428.294 307.785 427.813C307.498 427.327 307.047 427.084 306.432 427.084C305.834 427.084 305.392 427.315 305.104 427.778C304.823 428.235 304.674 428.953 304.656 429.932V433.043C304.656 434.086 304.797 434.862 305.078 435.372C305.365 435.876 305.822 436.128 306.449 436.128C307.07 436.128 307.519 435.885 307.794 435.398C308.069 434.912 308.213 434.168 308.225 433.166V430.125ZM321.162 433.333C321.162 434.856 320.837 436.046 320.187 436.901C319.536 437.751 318.628 438.176 317.462 438.176C316.431 438.176 315.607 437.78 314.992 436.989L314.878 438H312.593V424.5H315.133V429.343C315.719 428.657 316.489 428.314 317.444 428.314C318.604 428.314 319.513 428.742 320.169 429.598C320.831 430.447 321.162 431.646 321.162 433.192V433.333ZM318.622 433.148C318.622 432.188 318.47 431.487 318.165 431.048C317.86 430.603 317.406 430.38 316.803 430.38C315.994 430.38 315.438 430.711 315.133 431.373V435.126C315.443 435.794 316.006 436.128 316.82 436.128C317.641 436.128 318.18 435.724 318.438 434.915C318.561 434.528 318.622 433.939 318.622 433.148ZM331.401 438H322.63V436.26L326.77 431.848C327.338 431.227 327.757 430.685 328.026 430.222C328.302 429.759 328.439 429.319 328.439 428.903C328.439 428.335 328.296 427.89 328.009 427.567C327.722 427.239 327.312 427.075 326.778 427.075C326.204 427.075 325.75 427.274 325.416 427.673C325.088 428.065 324.924 428.584 324.924 429.229H322.375C322.375 428.449 322.56 427.737 322.929 427.093C323.304 426.448 323.831 425.944 324.511 425.581C325.19 425.212 325.961 425.027 326.822 425.027C328.141 425.027 329.163 425.344 329.89 425.977C330.622 426.609 330.988 427.503 330.988 428.657C330.988 429.29 330.824 429.935 330.496 430.591C330.168 431.247 329.605 432.012 328.809 432.885L325.899 435.952H331.401V438ZM341.579 432.709C341.579 434.479 341.213 435.832 340.48 436.77C339.748 437.707 338.676 438.176 337.264 438.176C335.869 438.176 334.803 437.716 334.064 436.796C333.326 435.876 332.948 434.558 332.931 432.841V430.485C332.931 428.698 333.3 427.342 334.038 426.416C334.782 425.49 335.852 425.027 337.246 425.027C338.641 425.027 339.707 425.487 340.445 426.407C341.184 427.321 341.562 428.637 341.579 430.354V432.709ZM339.039 430.125C339.039 429.064 338.893 428.294 338.6 427.813C338.312 427.327 337.861 427.084 337.246 427.084C336.648 427.084 336.206 427.315 335.919 427.778C335.638 428.235 335.488 428.953 335.471 429.932V433.043C335.471 434.086 335.611 434.862 335.893 435.372C336.18 435.876 336.637 436.128 337.264 436.128C337.885 436.128 338.333 435.885 338.608 435.398C338.884 434.912 339.027 434.168 339.039 433.166V430.125ZM350.816 433.184H352.267V435.231H350.816V438H348.276V435.231H343.029L342.915 433.632L348.25 425.203H350.816V433.184ZM345.446 433.184H348.276V428.666L348.109 428.956L345.446 433.184ZM358.12 438.176C356.726 438.176 355.589 437.748 354.71 436.893C353.837 436.037 353.4 434.897 353.4 433.474V433.228C353.4 432.272 353.585 431.42 353.954 430.67C354.323 429.914 354.845 429.334 355.519 428.93C356.198 428.52 356.972 428.314 357.839 428.314C359.14 428.314 360.162 428.725 360.906 429.545C361.656 430.365 362.031 431.528 362.031 433.034V434.071H355.976C356.058 434.692 356.304 435.19 356.714 435.565C357.13 435.94 357.654 436.128 358.287 436.128C359.266 436.128 360.03 435.773 360.581 435.064L361.829 436.462C361.448 437.001 360.933 437.423 360.282 437.728C359.632 438.026 358.911 438.176 358.12 438.176ZM357.83 430.371C357.326 430.371 356.916 430.541 356.6 430.881C356.289 431.221 356.09 431.707 356.002 432.34H359.535V432.138C359.523 431.575 359.371 431.142 359.078 430.837C358.785 430.526 358.369 430.371 357.83 430.371ZM369.317 432.885C368.655 433.535 367.882 433.86 366.997 433.86C365.866 433.86 364.961 433.474 364.281 432.7C363.602 431.921 363.262 430.872 363.262 429.554C363.262 428.716 363.443 427.948 363.807 427.251C364.176 426.548 364.688 426.003 365.345 425.616C366.001 425.224 366.739 425.027 367.56 425.027C368.403 425.027 369.153 425.238 369.81 425.66C370.466 426.082 370.976 426.688 371.339 427.479C371.702 428.271 371.887 429.176 371.893 430.195V431.136C371.893 433.269 371.362 434.944 370.302 436.163C369.241 437.382 367.738 438.032 365.793 438.114L365.169 438.123V436.005L365.731 435.996C367.94 435.896 369.136 434.859 369.317 432.885ZM367.621 431.918C368.031 431.918 368.383 431.812 368.676 431.602C368.975 431.391 369.2 431.136 369.353 430.837V429.791C369.353 428.93 369.188 428.262 368.86 427.787C368.532 427.312 368.093 427.075 367.542 427.075C367.032 427.075 366.613 427.31 366.285 427.778C365.957 428.241 365.793 428.824 365.793 429.527C365.793 430.225 365.951 430.799 366.268 431.25C366.59 431.695 367.041 431.918 367.621 431.918ZM382.053 428.604C382.053 429.226 381.897 429.776 381.587 430.257C381.276 430.737 380.849 431.121 380.304 431.408C380.925 431.707 381.417 432.12 381.78 432.647C382.144 433.169 382.325 433.784 382.325 434.493C382.325 435.63 381.938 436.529 381.165 437.191C380.392 437.848 379.34 438.176 378.01 438.176C376.68 438.176 375.625 437.845 374.846 437.183C374.066 436.521 373.677 435.624 373.677 434.493C373.677 433.784 373.858 433.166 374.222 432.639C374.585 432.111 375.074 431.701 375.689 431.408C375.145 431.121 374.717 430.737 374.406 430.257C374.102 429.776 373.949 429.226 373.949 428.604C373.949 427.515 374.312 426.647 375.039 426.003C375.766 425.353 376.753 425.027 378.001 425.027C379.243 425.027 380.228 425.35 380.954 425.994C381.687 426.633 382.053 427.503 382.053 428.604ZM379.776 434.309C379.776 433.752 379.615 433.307 379.293 432.973C378.971 432.639 378.537 432.472 377.992 432.472C377.453 432.472 377.022 432.639 376.7 432.973C376.378 433.301 376.217 433.746 376.217 434.309C376.217 434.854 376.375 435.293 376.691 435.627C377.008 435.961 377.447 436.128 378.01 436.128C378.561 436.128 378.991 435.967 379.302 435.645C379.618 435.322 379.776 434.877 379.776 434.309ZM379.513 428.728C379.513 428.229 379.381 427.831 379.117 427.532C378.854 427.228 378.481 427.075 378.001 427.075C377.526 427.075 377.157 427.222 376.894 427.515C376.63 427.808 376.498 428.212 376.498 428.728C376.498 429.237 376.63 429.647 376.894 429.958C377.157 430.269 377.529 430.424 378.01 430.424C378.49 430.424 378.859 430.269 379.117 429.958C379.381 429.647 379.513 429.237 379.513 428.728ZM392.661 432.709C392.661 434.479 392.295 435.832 391.562 436.77C390.83 437.707 389.758 438.176 388.346 438.176C386.951 438.176 385.885 437.716 385.146 436.796C384.408 435.876 384.03 434.558 384.013 432.841V430.485C384.013 428.698 384.382 427.342 385.12 426.416C385.864 425.49 386.934 425.027 388.328 425.027C389.723 425.027 390.789 425.487 391.527 426.407C392.266 427.321 392.644 428.637 392.661 430.354V432.709ZM390.121 430.125C390.121 429.064 389.975 428.294 389.682 427.813C389.395 427.327 388.943 427.084 388.328 427.084C387.73 427.084 387.288 427.315 387.001 427.778C386.72 428.235 386.57 428.953 386.553 429.932V433.043C386.553 434.086 386.693 434.862 386.975 435.372C387.262 435.876 387.719 436.128 388.346 436.128C388.967 436.128 389.415 435.885 389.69 435.398C389.966 434.912 390.109 434.168 390.121 433.166V430.125ZM402.997 432.709C402.997 434.479 402.631 435.832 401.898 436.77C401.166 437.707 400.094 438.176 398.682 438.176C397.287 438.176 396.221 437.716 395.482 436.796C394.744 435.876 394.366 434.558 394.349 432.841V430.485C394.349 428.698 394.718 427.342 395.456 426.416C396.2 425.49 397.27 425.027 398.664 425.027C400.059 425.027 401.125 425.487 401.863 426.407C402.602 427.321 402.979 428.637 402.997 430.354V432.709ZM400.457 430.125C400.457 429.064 400.311 428.294 400.018 427.813C399.73 427.327 399.279 427.084 398.664 427.084C398.066 427.084 397.624 427.315 397.337 427.778C397.056 428.235 396.906 428.953 396.889 429.932V433.043C396.889 434.086 397.029 434.862 397.311 435.372C397.598 435.876 398.055 436.128 398.682 436.128C399.303 436.128 399.751 435.885 400.026 435.398C400.302 434.912 400.445 434.168 400.457 433.166V430.125ZM410.661 432.885C409.999 433.535 409.226 433.86 408.341 433.86C407.21 433.86 406.305 433.474 405.625 432.7C404.945 431.921 404.605 430.872 404.605 429.554C404.605 428.716 404.787 427.948 405.15 427.251C405.52 426.548 406.032 426.003 406.688 425.616C407.345 425.224 408.083 425.027 408.903 425.027C409.747 425.027 410.497 425.238 411.153 425.66C411.81 426.082 412.319 426.688 412.683 427.479C413.046 428.271 413.23 429.176 413.236 430.195V431.136C413.236 433.269 412.706 434.944 411.646 436.163C410.585 437.382 409.082 438.032 407.137 438.114L406.513 438.123V436.005L407.075 435.996C409.284 435.896 410.479 434.859 410.661 432.885ZM408.965 431.918C409.375 431.918 409.727 431.812 410.02 431.602C410.318 431.391 410.544 431.136 410.696 430.837V429.791C410.696 428.93 410.532 428.262 410.204 427.787C409.876 427.312 409.437 427.075 408.886 427.075C408.376 427.075 407.957 427.31 407.629 427.778C407.301 428.241 407.137 428.824 407.137 429.527C407.137 430.225 407.295 430.799 407.611 431.25C407.934 431.695 408.385 431.918 408.965 431.918ZM420.997 432.885C420.335 433.535 419.562 433.86 418.677 433.86C417.546 433.86 416.641 433.474 415.961 432.7C415.281 431.921 414.941 430.872 414.941 429.554C414.941 428.716 415.123 427.948 415.486 427.251C415.855 426.548 416.368 426.003 417.024 425.616C417.681 425.224 418.419 425.027 419.239 425.027C420.083 425.027 420.833 425.238 421.489 425.66C422.146 426.082 422.655 426.688 423.019 427.479C423.382 428.271 423.566 429.176 423.572 430.195V431.136C423.572 433.269 423.042 434.944 421.981 436.163C420.921 437.382 419.418 438.032 417.473 438.114L416.849 438.123V436.005L417.411 435.996C419.62 435.896 420.815 434.859 420.997 432.885ZM419.301 431.918C419.711 431.918 420.062 431.812 420.355 431.602C420.654 431.391 420.88 431.136 421.032 430.837V429.791C421.032 428.93 420.868 428.262 420.54 427.787C420.212 427.312 419.772 427.075 419.222 427.075C418.712 427.075 418.293 427.31 417.965 427.778C417.637 428.241 417.473 428.824 417.473 429.527C417.473 430.225 417.631 430.799 417.947 431.25C418.27 431.695 418.721 431.918 419.301 431.918ZM433.732 428.604C433.732 429.226 433.577 429.776 433.267 430.257C432.956 430.737 432.528 431.121 431.983 431.408C432.604 431.707 433.097 432.12 433.46 432.647C433.823 433.169 434.005 433.784 434.005 434.493C434.005 435.63 433.618 436.529 432.845 437.191C432.071 437.848 431.02 438.176 429.689 438.176C428.359 438.176 427.305 437.845 426.525 437.183C425.746 436.521 425.356 435.624 425.356 434.493C425.356 433.784 425.538 433.166 425.901 432.639C426.265 432.111 426.754 431.701 427.369 431.408C426.824 431.121 426.396 430.737 426.086 430.257C425.781 429.776 425.629 429.226 425.629 428.604C425.629 427.515 425.992 426.647 426.719 426.003C427.445 425.353 428.433 425.027 429.681 425.027C430.923 425.027 431.907 425.35 432.634 425.994C433.366 426.633 433.732 427.503 433.732 428.604ZM431.456 434.309C431.456 433.752 431.295 433.307 430.973 432.973C430.65 432.639 430.217 432.472 429.672 432.472C429.133 432.472 428.702 432.639 428.38 432.973C428.058 433.301 427.896 433.746 427.896 434.309C427.896 434.854 428.055 435.293 428.371 435.627C428.688 435.961 429.127 436.128 429.689 436.128C430.24 436.128 430.671 435.967 430.981 435.645C431.298 435.322 431.456 434.877 431.456 434.309ZM431.192 428.728C431.192 428.229 431.061 427.831 430.797 427.532C430.533 427.228 430.161 427.075 429.681 427.075C429.206 427.075 428.837 427.222 428.573 427.515C428.31 427.808 428.178 428.212 428.178 428.728C428.178 429.237 428.31 429.647 428.573 429.958C428.837 430.269 429.209 430.424 429.689 430.424C430.17 430.424 430.539 430.269 430.797 429.958C431.061 429.647 431.192 429.237 431.192 428.728ZM440.21 438.176C438.815 438.176 437.679 437.748 436.8 436.893C435.927 436.037 435.49 434.897 435.49 433.474V433.228C435.49 432.272 435.675 431.42 436.044 430.67C436.413 429.914 436.935 429.334 437.608 428.93C438.288 428.52 439.062 428.314 439.929 428.314C441.229 428.314 442.252 428.725 442.996 429.545C443.746 430.365 444.121 431.528 444.121 433.034V434.071H438.065C438.147 434.692 438.394 435.19 438.804 435.565C439.22 435.94 439.744 436.128 440.377 436.128C441.355 436.128 442.12 435.773 442.671 435.064L443.919 436.462C443.538 437.001 443.022 437.423 442.372 437.728C441.722 438.026 441.001 438.176 440.21 438.176ZM439.92 430.371C439.416 430.371 439.006 430.541 438.689 430.881C438.379 431.221 438.18 431.707 438.092 432.34H441.625V432.138C441.613 431.575 441.461 431.142 441.168 430.837C440.875 430.526 440.459 430.371 439.92 430.371ZM449.526 436.128C449.995 436.128 450.376 435.999 450.669 435.741C450.962 435.483 451.114 435.141 451.126 434.713H453.508C453.502 435.357 453.326 435.949 452.98 436.488C452.635 437.021 452.16 437.438 451.557 437.736C450.959 438.029 450.297 438.176 449.57 438.176C448.211 438.176 447.139 437.745 446.354 436.884C445.568 436.017 445.176 434.821 445.176 433.298V433.131C445.176 431.666 445.565 430.497 446.345 429.624C447.124 428.751 448.193 428.314 449.553 428.314C450.742 428.314 451.694 428.654 452.409 429.334C453.13 430.008 453.496 430.907 453.508 432.032H451.126C451.114 431.54 450.962 431.142 450.669 430.837C450.376 430.526 449.989 430.371 449.509 430.371C448.917 430.371 448.469 430.588 448.164 431.021C447.865 431.449 447.716 432.146 447.716 433.113V433.377C447.716 434.355 447.865 435.059 448.164 435.486C448.463 435.914 448.917 436.128 449.526 436.128ZM455.652 438V430.354H454.237V428.49H455.652V427.682C455.652 426.615 455.957 425.789 456.566 425.203C457.182 424.611 458.04 424.315 459.142 424.315C459.493 424.315 459.924 424.374 460.434 424.491L460.407 426.46C460.196 426.407 459.938 426.381 459.634 426.381C458.679 426.381 458.201 426.829 458.201 427.726V428.49H460.091V430.354H458.201V438H455.652ZM461.541 436.752C461.541 436.348 461.676 436.02 461.945 435.768C462.221 435.516 462.563 435.39 462.974 435.39C463.39 435.39 463.732 435.516 464.002 435.768C464.277 436.02 464.415 436.348 464.415 436.752C464.415 437.15 464.28 437.476 464.011 437.728C463.741 437.974 463.396 438.097 462.974 438.097C462.558 438.097 462.215 437.974 461.945 437.728C461.676 437.476 461.541 437.15 461.541 436.752ZM466.779 436.752C466.779 436.348 466.914 436.02 467.184 435.768C467.459 435.516 467.802 435.39 468.212 435.39C468.628 435.39 468.971 435.516 469.24 435.768C469.516 436.02 469.653 436.348 469.653 436.752C469.653 437.15 469.519 437.476 469.249 437.728C468.979 437.974 468.634 438.097 468.212 438.097C467.796 438.097 467.453 437.974 467.184 437.728C466.914 437.476 466.779 437.15 466.779 436.752ZM472.018 436.752C472.018 436.348 472.152 436.02 472.422 435.768C472.697 435.516 473.04 435.39 473.45 435.39C473.866 435.39 474.209 435.516 474.479 435.768C474.754 436.02 474.892 436.348 474.892 436.752C474.892 437.15 474.757 437.476 474.487 437.728C474.218 437.974 473.872 438.097 473.45 438.097C473.034 438.097 472.691 437.974 472.422 437.728C472.152 437.476 472.018 437.15 472.018 436.752Z" fill="black"/>
<rect x="175" y="409" width="320" height="45" stroke="black"/>
<g filter="url(#filter0_d_2_12)">
<rect x="470" y="193" width="16" height="16" fill="#C4C4C4"/>
</g>
<g filter="url(#filter1_d_2_12)">
<rect x="490" y="262" width="16" height="16" fill="#C4C4C4"/>
</g>
<g filter="url(#filter2_d_2_12)">
<rect x="544" y="226" width="16" height="16" fill="#C4C4C4"/>
</g>
<path d="M498.264 269.575L497.409 269.044L497.502 270.047L502.502 323.547L503.47 323.67L513.839 295.032L541.456 297.498L541.764 296.575L498.264 269.575Z" fill="#444444" stroke="#F50000"/>
<path d="M278.92 62.877H277.52V66H275.762V57.4688H278.932C279.939 57.4688 280.717 57.6934 281.264 58.1426C281.811 58.5918 282.084 59.2266 282.084 60.0469C282.084 60.6289 281.957 61.1152 281.703 61.5059C281.453 61.8926 281.072 62.2012 280.561 62.4316L282.406 65.918V66H280.52L278.92 62.877ZM277.52 61.4531H278.938C279.379 61.4531 279.721 61.3418 279.963 61.1191C280.205 60.8926 280.326 60.582 280.326 60.1875C280.326 59.7852 280.211 59.4688 279.98 59.2383C279.754 59.0078 279.404 58.8926 278.932 58.8926H277.52V61.4531ZM286.988 66C286.91 65.8477 286.854 65.6582 286.818 65.4316C286.408 65.8887 285.875 66.1172 285.219 66.1172C284.598 66.1172 284.082 65.9375 283.672 65.5781C283.266 65.2188 283.062 64.7656 283.062 64.2188C283.062 63.5469 283.311 63.0312 283.807 62.6719C284.307 62.3125 285.027 62.1309 285.969 62.127H286.748V61.7637C286.748 61.4707 286.672 61.2363 286.52 61.0605C286.371 60.8848 286.135 60.7969 285.811 60.7969C285.525 60.7969 285.301 60.8652 285.137 61.002C284.977 61.1387 284.896 61.3262 284.896 61.5645H283.203C283.203 61.1973 283.316 60.8574 283.543 60.5449C283.77 60.2324 284.09 59.9883 284.504 59.8125C284.918 59.6328 285.383 59.543 285.898 59.543C286.68 59.543 287.299 59.7402 287.756 60.1348C288.217 60.5254 288.447 61.0762 288.447 61.7871V64.5352C288.451 65.1367 288.535 65.5918 288.699 65.9004V66H286.988ZM285.588 64.8223C285.838 64.8223 286.068 64.7676 286.279 64.6582C286.49 64.5449 286.646 64.3945 286.748 64.207V63.1172H286.115C285.268 63.1172 284.816 63.4102 284.762 63.9961L284.756 64.0957C284.756 64.3066 284.83 64.4805 284.979 64.6172C285.127 64.7539 285.33 64.8223 285.588 64.8223ZM291.307 59.6602L291.359 60.3926C291.812 59.8262 292.42 59.543 293.182 59.543C293.854 59.543 294.354 59.7402 294.682 60.1348C295.01 60.5293 295.178 61.1191 295.186 61.9043V66H293.492V61.9453C293.492 61.5859 293.414 61.3262 293.258 61.166C293.102 61.002 292.842 60.9199 292.479 60.9199C292.002 60.9199 291.645 61.123 291.406 61.5293V66H289.713V59.6602H291.307ZM296.211 62.7832C296.211 61.7949 296.432 61.0078 296.873 60.4219C297.318 59.8359 297.926 59.543 298.695 59.543C299.312 59.543 299.822 59.7734 300.225 60.2344V57H301.924V66H300.395L300.312 65.3262C299.891 65.8535 299.348 66.1172 298.684 66.1172C297.938 66.1172 297.338 65.8242 296.885 65.2383C296.436 64.6484 296.211 63.8301 296.211 62.7832ZM297.904 62.9062C297.904 63.5 298.008 63.9551 298.215 64.2715C298.422 64.5879 298.723 64.7461 299.117 64.7461C299.641 64.7461 300.01 64.5254 300.225 64.084V61.582C300.014 61.1406 299.648 60.9199 299.129 60.9199C298.312 60.9199 297.904 61.582 297.904 62.9062ZM302.973 62.7715C302.973 62.1426 303.094 61.582 303.336 61.0898C303.578 60.5977 303.926 60.2168 304.379 59.9473C304.836 59.6777 305.365 59.543 305.967 59.543C306.822 59.543 307.52 59.8047 308.059 60.3281C308.602 60.8516 308.904 61.5625 308.967 62.4609L308.979 62.8945C308.979 63.8672 308.707 64.6484 308.164 65.2383C307.621 65.8242 306.893 66.1172 305.979 66.1172C305.064 66.1172 304.334 65.8242 303.787 65.2383C303.244 64.6523 302.973 63.8555 302.973 62.8477V62.7715ZM304.666 62.8945C304.666 63.4961 304.779 63.957 305.006 64.2773C305.232 64.5938 305.557 64.752 305.979 64.752C306.389 64.752 306.709 64.5957 306.939 64.2832C307.17 63.9668 307.285 63.4629 307.285 62.7715C307.285 62.1816 307.17 61.7246 306.939 61.4004C306.709 61.0762 306.385 60.9141 305.967 60.9141C305.553 60.9141 305.232 61.0762 305.006 61.4004C304.779 61.7207 304.666 62.2188 304.666 62.8945ZM311.609 59.6602L311.662 60.3691C312.111 59.8184 312.719 59.543 313.484 59.543C314.301 59.543 314.861 59.8652 315.166 60.5098C315.611 59.8652 316.246 59.543 317.07 59.543C317.758 59.543 318.27 59.7441 318.605 60.1465C318.941 60.5449 319.109 61.1465 319.109 61.9512V66H317.41V61.957C317.41 61.5977 317.34 61.3359 317.199 61.1719C317.059 61.0039 316.811 60.9199 316.455 60.9199C315.947 60.9199 315.596 61.1621 315.4 61.6465L315.406 66H313.713V61.9629C313.713 61.5957 313.641 61.3301 313.496 61.166C313.352 61.002 313.105 60.9199 312.758 60.9199C312.277 60.9199 311.93 61.1191 311.715 61.5176V66H310.021V59.6602H311.609ZM322.203 66H320.504V59.6602H322.203V66ZM320.404 58.0195C320.404 57.7656 320.488 57.5566 320.656 57.3926C320.828 57.2285 321.061 57.1465 321.354 57.1465C321.643 57.1465 321.873 57.2285 322.045 57.3926C322.217 57.5566 322.303 57.7656 322.303 58.0195C322.303 58.2773 322.215 58.4883 322.039 58.6523C321.867 58.8164 321.639 58.8984 321.354 58.8984C321.068 58.8984 320.838 58.8164 320.662 58.6523C320.49 58.4883 320.404 58.2773 320.404 58.0195ZM327.037 64.248C327.037 64.041 326.934 63.8789 326.727 63.7617C326.523 63.6406 326.195 63.5332 325.742 63.4395C324.234 63.123 323.48 62.4824 323.48 61.5176C323.48 60.9551 323.713 60.4863 324.178 60.1113C324.646 59.7324 325.258 59.543 326.012 59.543C326.816 59.543 327.459 59.7324 327.939 60.1113C328.424 60.4902 328.666 60.9824 328.666 61.5879H326.973C326.973 61.3457 326.895 61.1465 326.738 60.9902C326.582 60.8301 326.338 60.75 326.006 60.75C325.721 60.75 325.5 60.8145 325.344 60.9434C325.188 61.0723 325.109 61.2363 325.109 61.4355C325.109 61.623 325.197 61.7754 325.373 61.8926C325.553 62.0059 325.854 62.1055 326.275 62.1914C326.697 62.2734 327.053 62.3672 327.342 62.4727C328.236 62.8008 328.684 63.3691 328.684 64.1777C328.684 64.7559 328.436 65.2246 327.939 65.584C327.443 65.9395 326.803 66.1172 326.018 66.1172C325.486 66.1172 325.014 66.0234 324.6 65.8359C324.189 65.6445 323.867 65.3848 323.633 65.0566C323.398 64.7246 323.281 64.3672 323.281 63.9844H324.887C324.902 64.2852 325.014 64.5156 325.221 64.6758C325.428 64.8359 325.705 64.916 326.053 64.916C326.377 64.916 326.621 64.8555 326.785 64.7344C326.953 64.6094 327.037 64.4473 327.037 64.248ZM331.566 66H329.867V59.6602H331.566V66ZM329.768 58.0195C329.768 57.7656 329.852 57.5566 330.02 57.3926C330.191 57.2285 330.424 57.1465 330.717 57.1465C331.006 57.1465 331.236 57.2285 331.408 57.3926C331.58 57.5566 331.666 57.7656 331.666 58.0195C331.666 58.2773 331.578 58.4883 331.402 58.6523C331.23 58.8164 331.002 58.8984 330.717 58.8984C330.432 58.8984 330.201 58.8164 330.025 58.6523C329.854 58.4883 329.768 58.2773 329.768 58.0195ZM334.525 59.6602L334.578 60.3926C335.031 59.8262 335.639 59.543 336.4 59.543C337.072 59.543 337.572 59.7402 337.9 60.1348C338.229 60.5293 338.396 61.1191 338.404 61.9043V66H336.711V61.9453C336.711 61.5859 336.633 61.3262 336.477 61.166C336.32 61.002 336.061 60.9199 335.697 60.9199C335.221 60.9199 334.863 61.123 334.625 61.5293V66H332.932V59.6602H334.525ZM339.447 62.7832C339.447 61.8105 339.678 61.0273 340.139 60.4336C340.604 59.8398 341.229 59.543 342.014 59.543C342.709 59.543 343.25 59.7812 343.637 60.2578L343.707 59.6602H345.242V65.7891C345.242 66.3438 345.115 66.8262 344.861 67.2363C344.611 67.6465 344.258 67.959 343.801 68.1738C343.344 68.3887 342.809 68.4961 342.195 68.4961C341.73 68.4961 341.277 68.4023 340.836 68.2148C340.395 68.0312 340.061 67.793 339.834 67.5L340.584 66.4688C341.006 66.9414 341.518 67.1777 342.119 67.1777C342.568 67.1777 342.918 67.0566 343.168 66.8145C343.418 66.5762 343.543 66.2363 343.543 65.7949V65.4551C343.152 65.8965 342.639 66.1172 342.002 66.1172C341.24 66.1172 340.623 65.8203 340.15 65.2266C339.682 64.6289 339.447 63.8379 339.447 62.8535V62.7832ZM341.141 62.9062C341.141 63.4805 341.256 63.9316 341.486 64.2598C341.717 64.584 342.033 64.7461 342.436 64.7461C342.951 64.7461 343.32 64.5527 343.543 64.166V61.5C343.316 61.1133 342.951 60.9199 342.447 60.9199C342.041 60.9199 341.721 61.0859 341.486 61.418C341.256 61.75 341.141 62.2461 341.141 62.9062ZM354.072 63.7617C354.072 63.4297 353.955 63.1758 353.721 63C353.486 62.8203 353.064 62.6328 352.455 62.4375C351.846 62.2383 351.363 62.043 351.008 61.8516C350.039 61.3281 349.555 60.623 349.555 59.7363C349.555 59.2754 349.684 58.8652 349.941 58.5059C350.203 58.1426 350.576 57.8594 351.061 57.6562C351.549 57.4531 352.096 57.3516 352.701 57.3516C353.311 57.3516 353.854 57.4629 354.33 57.6855C354.807 57.9043 355.176 58.2148 355.438 58.6172C355.703 59.0195 355.836 59.4766 355.836 59.9883H354.078C354.078 59.5977 353.955 59.2949 353.709 59.0801C353.463 58.8613 353.117 58.752 352.672 58.752C352.242 58.752 351.908 58.8438 351.67 59.0273C351.432 59.207 351.312 59.4453 351.312 59.7422C351.312 60.0195 351.451 60.252 351.729 60.4395C352.01 60.627 352.422 60.8027 352.965 60.9668C353.965 61.2676 354.693 61.6406 355.15 62.0859C355.607 62.5312 355.836 63.0859 355.836 63.75C355.836 64.4883 355.557 65.0684 354.998 65.4902C354.439 65.9082 353.688 66.1172 352.742 66.1172C352.086 66.1172 351.488 65.998 350.949 65.7598C350.41 65.5176 349.998 65.1875 349.713 64.7695C349.432 64.3516 349.291 63.8672 349.291 63.3164H351.055C351.055 64.2578 351.617 64.7285 352.742 64.7285C353.16 64.7285 353.486 64.6445 353.721 64.4766C353.955 64.3047 354.072 64.0664 354.072 63.7617ZM359.838 66.1172C358.908 66.1172 358.15 65.832 357.564 65.2617C356.982 64.6914 356.691 63.9316 356.691 62.9824V62.8184C356.691 62.1816 356.814 61.6133 357.061 61.1133C357.307 60.6094 357.654 60.2227 358.104 59.9531C358.557 59.6797 359.072 59.543 359.65 59.543C360.518 59.543 361.199 59.8164 361.695 60.3633C362.195 60.9102 362.445 61.6855 362.445 62.6895V63.3809H358.408C358.463 63.7949 358.627 64.127 358.9 64.377C359.178 64.627 359.527 64.752 359.949 64.752C360.602 64.752 361.111 64.5156 361.479 64.043L362.311 64.9746C362.057 65.334 361.713 65.6152 361.279 65.8184C360.846 66.0176 360.365 66.1172 359.838 66.1172ZM359.645 60.9141C359.309 60.9141 359.035 61.0273 358.824 61.2539C358.617 61.4805 358.484 61.8047 358.426 62.2266H360.781V62.0918C360.773 61.7168 360.672 61.4277 360.477 61.2246C360.281 61.0176 360.004 60.9141 359.645 60.9141ZM366.049 64.752C366.361 64.752 366.615 64.666 366.811 64.4941C367.006 64.3223 367.107 64.0938 367.115 63.8086H368.703C368.699 64.2383 368.582 64.6328 368.352 64.9922C368.121 65.3477 367.805 65.625 367.402 65.8242C367.004 66.0195 366.562 66.1172 366.078 66.1172C365.172 66.1172 364.457 65.8301 363.934 65.2559C363.41 64.6777 363.148 63.8809 363.148 62.8652V62.7539C363.148 61.7773 363.408 60.998 363.928 60.416C364.447 59.834 365.16 59.543 366.066 59.543C366.859 59.543 367.494 59.7695 367.971 60.2227C368.451 60.6719 368.695 61.2715 368.703 62.0215H367.115C367.107 61.6934 367.006 61.4277 366.811 61.2246C366.615 61.0176 366.357 60.9141 366.037 60.9141C365.643 60.9141 365.344 61.0586 365.141 61.3477C364.941 61.6328 364.842 62.0977 364.842 62.7422V62.918C364.842 63.5703 364.941 64.0391 365.141 64.3242C365.34 64.6094 365.643 64.752 366.049 64.752ZM373.232 61.248C373.002 61.2168 372.799 61.2012 372.623 61.2012C371.982 61.2012 371.562 61.418 371.363 61.8516V66H369.67V59.6602H371.27L371.316 60.416C371.656 59.834 372.127 59.543 372.729 59.543C372.916 59.543 373.092 59.5684 373.256 59.6191L373.232 61.248ZM376.854 66.1172C375.924 66.1172 375.166 65.832 374.58 65.2617C373.998 64.6914 373.707 63.9316 373.707 62.9824V62.8184C373.707 62.1816 373.83 61.6133 374.076 61.1133C374.322 60.6094 374.67 60.2227 375.119 59.9531C375.572 59.6797 376.088 59.543 376.666 59.543C377.533 59.543 378.215 59.8164 378.711 60.3633C379.211 60.9102 379.461 61.6855 379.461 62.6895V63.3809H375.424C375.479 63.7949 375.643 64.127 375.916 64.377C376.193 64.627 376.543 64.752 376.965 64.752C377.617 64.752 378.127 64.5156 378.494 64.043L379.326 64.9746C379.072 65.334 378.729 65.6152 378.295 65.8184C377.861 66.0176 377.381 66.1172 376.854 66.1172ZM376.66 60.9141C376.324 60.9141 376.051 61.0273 375.84 61.2539C375.633 61.4805 375.5 61.8047 375.441 62.2266H377.797V62.0918C377.789 61.7168 377.688 61.4277 377.492 61.2246C377.297 61.0176 377.02 60.9141 376.66 60.9141ZM382.455 58.1016V59.6602H383.539V60.9023H382.455V64.0664C382.455 64.3008 382.5 64.4688 382.59 64.5703C382.68 64.6719 382.852 64.7227 383.105 64.7227C383.293 64.7227 383.459 64.709 383.604 64.6816V65.9648C383.271 66.0664 382.93 66.1172 382.578 66.1172C381.391 66.1172 380.785 65.5176 380.762 64.3184V60.9023H379.836V59.6602H380.762V58.1016H382.455ZM384.57 65.168C384.57 64.8984 384.66 64.6797 384.84 64.5117C385.023 64.3438 385.252 64.2598 385.525 64.2598C385.803 64.2598 386.031 64.3438 386.211 64.5117C386.395 64.6797 386.486 64.8984 386.486 65.168C386.486 65.4336 386.396 65.6504 386.217 65.8184C386.037 65.9824 385.807 66.0645 385.525 66.0645C385.248 66.0645 385.02 65.9824 384.84 65.8184C384.66 65.6504 384.57 65.4336 384.57 65.168ZM388.062 65.168C388.062 64.8984 388.152 64.6797 388.332 64.5117C388.516 64.3438 388.744 64.2598 389.018 64.2598C389.295 64.2598 389.523 64.3438 389.703 64.5117C389.887 64.6797 389.979 64.8984 389.979 65.168C389.979 65.4336 389.889 65.6504 389.709 65.8184C389.529 65.9824 389.299 66.0645 389.018 66.0645C388.74 66.0645 388.512 65.9824 388.332 65.8184C388.152 65.6504 388.062 65.4336 388.062 65.168ZM391.555 65.168C391.555 64.8984 391.645 64.6797 391.824 64.5117C392.008 64.3438 392.236 64.2598 392.51 64.2598C392.787 64.2598 393.016 64.3438 393.195 64.5117C393.379 64.6797 393.471 64.8984 393.471 65.168C393.471 65.4336 393.381 65.6504 393.201 65.8184C393.021 65.9824 392.791 66.0645 392.51 66.0645C392.232 66.0645 392.004 65.9824 391.824 65.8184C391.645 65.6504 391.555 65.4336 391.555 65.168Z" fill="black"/>
<rect x="261.5" y="46.5" width="147" height="30" rx="3.5" stroke="black"/>
<line x1="3" y1="36.5" x2="666" y2="36.5" stroke="black"/>
<defs>
<filter id="filter0_d_2_12" x="470" y="193" width="20" height="20" filterUnits="userSpaceOnUse" color-interpolation-filters="sRGB">
<feFlood flood-opacity="0" result="BackgroundImageFix"/>
<feColorMatrix in="SourceAlpha" type="matrix" values="0 0 0 0 0 0 0 0 0 0 0 0 0 0 0 0 0 0 127 0" result="hardAlpha"/>
<feOffset dx="2" dy="2"/>
<feGaussianBlur stdDeviation="1"/>
<feComposite in2="hardAlpha" operator="out"/>
<feColorMatrix type="matrix" values="0 0 0 0 0 0 0 0 0 0 0 0 0 0 0 0 0 0 0.25 0"/>
<feBlend mode="normal" in2="BackgroundImageFix" result="effect1_dropShadow_2_12"/>
<feBlend mode="normal" in="SourceGraphic" in2="effect1_dropShadow_2_12" result="shape"/>
</filter>
<filter id="filter1_d_2_12" x="490" y="262" width="20" height="20" filterUnits="userSpaceOnUse" color-interpolation-filters="sRGB">
<feFlood flood-opacity="0" result="BackgroundImageFix"/>
<feColorMatrix in="SourceAlpha" type="matrix" values="0 0 0 0 0 0 0 0 0 0 0 0 0 0 0 0 0 0 127 0" result="hardAlpha"/>
<feOffset dx="2" dy="2"/>
<feGaussianBlur stdDeviation="1"/>
<feComposite in2="hardAlpha" operator="out"/>
<feColorMatrix type="matrix" values="0 0 0 0 0 0 0 0 0 0 0 0 0 0 0 0 0 0 0.25 0"/>
<feBlend mode="normal" in2="BackgroundImageFix" result="effect1_dropShadow_2_12"/>
<feBlend mode="normal" in="SourceGraphic" in2="effect1_dropShadow_2_12" result="shape"/>
</filter>
<filter id="filter2_d_2_12" x="544" y="226" width="20" height="20" filterUnits="userSpaceOnUse" color-interpolation-filters="sRGB">
<feFlood flood-opacity="0" result="BackgroundImageFix"/>
<feColorMatrix in="SourceAlpha" type="matrix" values="0 0 0 0 0 0 0 0 0 0 0 0 0 0 0 0 0 0 127 0" result="hardAlpha"/>
<feOffset dx="2" dy="2"/>
<feGaussianBlur stdDeviation="1"/>
<feComposite in2="hardAlpha" operator="out"/>
<feColorMatrix type="matrix" values="0 0 0 0 0 0 0 0 0 0 0 0 0 0 0 0 0 0 0.25 0"/>
<feBlend mode="normal" in2="BackgroundImageFix" result="effect1_dropShadow_2_12"/>
<feBlend mode="normal" in="SourceGraphic" in2="effect1_dropShadow_2_12" result="shape"/>
</filter>
</defs>
</svg>
