<svg width="322" height="361" viewBox="0 0 322 361" fill="none" xmlns="http://www.w3.org/2000/svg">
<rect x="1" width="320" height="360" rx="8" fill="white"/>
<g filter="url(#filter0_d_65_28)">
<rect x="181" y="139" width="16" height="16" fill="#C4C4C4"/>
</g>
<g filter="url(#filter1_d_65_28)">
<rect x="201" y="208" width="16" height="16" fill="#C4C4C4"/>
</g>
<g filter="url(#filter2_d_65_28)">
<rect x="255" y="172" width="16" height="16" fill="#C4C4C4"/>
</g>
<path d="M209.264 215.575L208.409 215.044L208.502 216.047L213.502 269.547L214.47 269.67L224.839 241.032L252.456 243.498L252.764 242.575L209.264 215.575Z" fill="#444444" stroke="#F50000"/>
<circle cx="18" cy="19" r="5.5" stroke="black"/>
<circle cx="42" cy="19" r="5.5" stroke="black"/>
<circle cx="66" cy="19" r="5.5" stroke="black"/>
<line x1="1" y1="34.5" x2="321" y2="34.5" stroke="black"/>
<path d="M19.5801 339.175C19.5801 337.692 19.9111 336.512 20.5732 335.633C21.2412 334.754 22.1523 334.314 23.3066 334.314C24.2324 334.314 24.9971 334.66 25.6006 335.352V330.5H28.1494V344H25.8555L25.7324 342.989C25.0996 343.78 24.2852 344.176 23.2891 344.176C22.1699 344.176 21.2705 343.736 20.5908 342.857C19.917 341.973 19.5801 340.745 19.5801 339.175ZM22.1201 339.359C22.1201 340.25 22.2754 340.933 22.5859 341.407C22.8965 341.882 23.3477 342.119 23.9395 342.119C24.7246 342.119 25.2783 341.788 25.6006 341.126V337.373C25.2842 336.711 24.7363 336.38 23.957 336.38C22.7324 336.38 22.1201 337.373 22.1201 339.359ZM37.5273 339.184H38.9775V341.231H37.5273V344H34.9873V341.231H29.7402L29.626 339.632L34.9609 331.203H37.5273V339.184ZM32.1572 339.184H34.9873V334.666L34.8203 334.956L32.1572 339.184ZM46.5186 344H43.9785V334.209L40.9463 335.149V333.084L46.2461 331.186H46.5186V344ZM50.3945 339.175C50.3945 337.692 50.7256 336.512 51.3877 335.633C52.0557 334.754 52.9668 334.314 54.1211 334.314C55.0469 334.314 55.8115 334.66 56.415 335.352V330.5H58.9639V344H56.6699L56.5469 342.989C55.9141 343.78 55.0996 344.176 54.1035 344.176C52.9844 344.176 52.085 343.736 51.4053 342.857C50.7314 341.973 50.3945 340.745 50.3945 339.175ZM52.9346 339.359C52.9346 340.25 53.0898 340.933 53.4004 341.407C53.7109 341.882 54.1621 342.119 54.7539 342.119C55.5391 342.119 56.0928 341.788 56.415 341.126V337.373C56.0986 336.711 55.5508 336.38 54.7715 336.38C53.5469 336.38 52.9346 337.373 52.9346 339.359ZM69.168 334.604C69.168 335.226 69.0127 335.776 68.7021 336.257C68.3916 336.737 67.9639 337.121 67.4189 337.408C68.04 337.707 68.5322 338.12 68.8955 338.647C69.2588 339.169 69.4404 339.784 69.4404 340.493C69.4404 341.63 69.0537 342.529 68.2803 343.191C67.5068 343.848 66.4551 344.176 65.125 344.176C63.7949 344.176 62.7402 343.845 61.9609 343.183C61.1816 342.521 60.792 341.624 60.792 340.493C60.792 339.784 60.9736 339.166 61.3369 338.639C61.7002 338.111 62.1895 337.701 62.8047 337.408C62.2598 337.121 61.832 336.737 61.5215 336.257C61.2168 335.776 61.0645 335.226 61.0645 334.604C61.0645 333.515 61.4277 332.647 62.1543 332.003C62.8809 331.353 63.8682 331.027 65.1162 331.027C66.3584 331.027 67.3428 331.35 68.0693 331.994C68.8018 332.633 69.168 333.503 69.168 334.604ZM66.8916 340.309C66.8916 339.752 66.7305 339.307 66.4082 338.973C66.0859 338.639 65.6523 338.472 65.1074 338.472C64.5684 338.472 64.1377 338.639 63.8154 338.973C63.4932 339.301 63.332 339.746 63.332 340.309C63.332 340.854 63.4902 341.293 63.8066 341.627C64.123 341.961 64.5625 342.128 65.125 342.128C65.6758 342.128 66.1064 341.967 66.417 341.645C66.7334 341.322 66.8916 340.877 66.8916 340.309ZM66.6279 334.728C66.6279 334.229 66.4961 333.831 66.2324 333.532C65.9688 333.228 65.5967 333.075 65.1162 333.075C64.6416 333.075 64.2725 333.222 64.0088 333.515C63.7451 333.808 63.6133 334.212 63.6133 334.728C63.6133 335.237 63.7451 335.647 64.0088 335.958C64.2725 336.269 64.6445 336.424 65.125 336.424C65.6055 336.424 65.9746 336.269 66.2324 335.958C66.4961 335.647 66.6279 335.237 66.6279 334.728ZM75.2236 342.128C75.6924 342.128 76.0732 341.999 76.3662 341.741C76.6592 341.483 76.8115 341.141 76.8232 340.713H79.2051C79.1992 341.357 79.0234 341.949 78.6777 342.488C78.332 343.021 77.8574 343.438 77.2539 343.736C76.6562 344.029 75.9941 344.176 75.2676 344.176C73.9082 344.176 72.8359 343.745 72.0508 342.884C71.2656 342.017 70.873 340.821 70.873 339.298V339.131C70.873 337.666 71.2627 336.497 72.042 335.624C72.8213 334.751 73.8906 334.314 75.25 334.314C76.4395 334.314 77.3916 334.654 78.1064 335.334C78.8271 336.008 79.1934 336.907 79.2051 338.032H76.8232C76.8115 337.54 76.6592 337.142 76.3662 336.837C76.0732 336.526 75.6865 336.371 75.2061 336.371C74.6143 336.371 74.166 336.588 73.8613 337.021C73.5625 337.449 73.4131 338.146 73.4131 339.113V339.377C73.4131 340.355 73.5625 341.059 73.8613 341.486C74.1602 341.914 74.6143 342.128 75.2236 342.128ZM80.2598 339.175C80.2598 337.692 80.5908 336.512 81.2529 335.633C81.9209 334.754 82.832 334.314 83.9863 334.314C84.9121 334.314 85.6768 334.66 86.2803 335.352V330.5H88.8291V344H86.5352L86.4121 342.989C85.7793 343.78 84.9648 344.176 83.9688 344.176C82.8496 344.176 81.9502 343.736 81.2705 342.857C80.5967 341.973 80.2598 340.745 80.2598 339.175ZM82.7998 339.359C82.7998 340.25 82.9551 340.933 83.2656 341.407C83.5762 341.882 84.0273 342.119 84.6191 342.119C85.4043 342.119 85.958 341.788 86.2803 341.126V337.373C85.9639 336.711 85.416 336.38 84.6367 336.38C83.4121 336.38 82.7998 337.373 82.7998 339.359ZM96.6338 338.885C95.9717 339.535 95.1982 339.86 94.3135 339.86C93.1826 339.86 92.2773 339.474 91.5977 338.7C90.918 337.921 90.5781 336.872 90.5781 335.554C90.5781 334.716 90.7598 333.948 91.123 333.251C91.4922 332.548 92.0049 332.003 92.6611 331.616C93.3174 331.224 94.0557 331.027 94.876 331.027C95.7197 331.027 96.4697 331.238 97.126 331.66C97.7822 332.082 98.292 332.688 98.6553 333.479C99.0186 334.271 99.2031 335.176 99.209 336.195V337.136C99.209 339.269 98.6787 340.944 97.6182 342.163C96.5576 343.382 95.0547 344.032 93.1094 344.114L92.4854 344.123V342.005L93.0479 341.996C95.2568 341.896 96.4521 340.859 96.6338 338.885ZM94.9375 337.918C95.3477 337.918 95.6992 337.812 95.9922 337.602C96.291 337.391 96.5166 337.136 96.6689 336.837V335.791C96.6689 334.93 96.5049 334.262 96.1768 333.787C95.8486 333.312 95.4092 333.075 94.8584 333.075C94.3486 333.075 93.9297 333.31 93.6016 333.778C93.2734 334.241 93.1094 334.824 93.1094 335.527C93.1094 336.225 93.2676 336.799 93.584 337.25C93.9062 337.695 94.3574 337.918 94.9375 337.918ZM109.369 334.604C109.369 335.226 109.214 335.776 108.903 336.257C108.593 336.737 108.165 337.121 107.62 337.408C108.241 337.707 108.733 338.12 109.097 338.647C109.46 339.169 109.642 339.784 109.642 340.493C109.642 341.63 109.255 342.529 108.481 343.191C107.708 343.848 106.656 344.176 105.326 344.176C103.996 344.176 102.941 343.845 102.162 343.183C101.383 342.521 100.993 341.624 100.993 340.493C100.993 339.784 101.175 339.166 101.538 338.639C101.901 338.111 102.391 337.701 103.006 337.408C102.461 337.121 102.033 336.737 101.723 336.257C101.418 335.776 101.266 335.226 101.266 334.604C101.266 333.515 101.629 332.647 102.355 332.003C103.082 331.353 104.069 331.027 105.317 331.027C106.56 331.027 107.544 331.35 108.271 331.994C109.003 332.633 109.369 333.503 109.369 334.604ZM107.093 340.309C107.093 339.752 106.932 339.307 106.609 338.973C106.287 338.639 105.854 338.472 105.309 338.472C104.77 338.472 104.339 338.639 104.017 338.973C103.694 339.301 103.533 339.746 103.533 340.309C103.533 340.854 103.691 341.293 104.008 341.627C104.324 341.961 104.764 342.128 105.326 342.128C105.877 342.128 106.308 341.967 106.618 341.645C106.935 341.322 107.093 340.877 107.093 340.309ZM106.829 334.728C106.829 334.229 106.697 333.831 106.434 333.532C106.17 333.228 105.798 333.075 105.317 333.075C104.843 333.075 104.474 333.222 104.21 333.515C103.946 333.808 103.814 334.212 103.814 334.728C103.814 335.237 103.946 335.647 104.21 335.958C104.474 336.269 104.846 336.424 105.326 336.424C105.807 336.424 106.176 336.269 106.434 335.958C106.697 335.647 106.829 335.237 106.829 334.728ZM112.164 344V336.354H110.749V334.49H112.164V333.682C112.164 332.615 112.469 331.789 113.078 331.203C113.693 330.611 114.552 330.315 115.653 330.315C116.005 330.315 116.436 330.374 116.945 330.491L116.919 332.46C116.708 332.407 116.45 332.381 116.146 332.381C115.19 332.381 114.713 332.829 114.713 333.726V334.49H116.603V336.354H114.713V344H112.164ZM126.429 338.709C126.429 340.479 126.062 341.832 125.33 342.77C124.598 343.707 123.525 344.176 122.113 344.176C120.719 344.176 119.652 343.716 118.914 342.796C118.176 341.876 117.798 340.558 117.78 338.841V336.485C117.78 334.698 118.149 333.342 118.888 332.416C119.632 331.49 120.701 331.027 122.096 331.027C123.49 331.027 124.557 331.487 125.295 332.407C126.033 333.321 126.411 334.637 126.429 336.354V338.709ZM123.889 336.125C123.889 335.064 123.742 334.294 123.449 333.813C123.162 333.327 122.711 333.084 122.096 333.084C121.498 333.084 121.056 333.315 120.769 333.778C120.487 334.235 120.338 334.953 120.32 335.932V339.043C120.32 340.086 120.461 340.862 120.742 341.372C121.029 341.876 121.486 342.128 122.113 342.128C122.734 342.128 123.183 341.885 123.458 341.398C123.733 340.912 123.877 340.168 123.889 339.166V336.125ZM136.765 338.709C136.765 340.479 136.398 341.832 135.666 342.77C134.934 343.707 133.861 344.176 132.449 344.176C131.055 344.176 129.988 343.716 129.25 342.796C128.512 341.876 128.134 340.558 128.116 338.841V336.485C128.116 334.698 128.485 333.342 129.224 332.416C129.968 331.49 131.037 331.027 132.432 331.027C133.826 331.027 134.893 331.487 135.631 332.407C136.369 333.321 136.747 334.637 136.765 336.354V338.709ZM134.225 336.125C134.225 335.064 134.078 334.294 133.785 333.813C133.498 333.327 133.047 333.084 132.432 333.084C131.834 333.084 131.392 333.315 131.104 333.778C130.823 334.235 130.674 334.953 130.656 335.932V339.043C130.656 340.086 130.797 340.862 131.078 341.372C131.365 341.876 131.822 342.128 132.449 342.128C133.07 342.128 133.519 341.885 133.794 341.398C134.069 340.912 134.213 340.168 134.225 339.166V336.125ZM147.162 339.333C147.162 340.856 146.837 342.046 146.187 342.901C145.536 343.751 144.628 344.176 143.462 344.176C142.431 344.176 141.607 343.78 140.992 342.989L140.878 344H138.593V330.5H141.133V335.343C141.719 334.657 142.489 334.314 143.444 334.314C144.604 334.314 145.513 334.742 146.169 335.598C146.831 336.447 147.162 337.646 147.162 339.192V339.333ZM144.622 339.148C144.622 338.188 144.47 337.487 144.165 337.048C143.86 336.603 143.406 336.38 142.803 336.38C141.994 336.38 141.438 336.711 141.133 337.373V341.126C141.443 341.794 142.006 342.128 142.82 342.128C143.641 342.128 144.18 341.724 144.438 340.915C144.561 340.528 144.622 339.939 144.622 339.148ZM157.401 344H148.63V342.26L152.77 337.848C153.338 337.227 153.757 336.685 154.026 336.222C154.302 335.759 154.439 335.319 154.439 334.903C154.439 334.335 154.296 333.89 154.009 333.567C153.722 333.239 153.312 333.075 152.778 333.075C152.204 333.075 151.75 333.274 151.416 333.673C151.088 334.065 150.924 334.584 150.924 335.229H148.375C148.375 334.449 148.56 333.737 148.929 333.093C149.304 332.448 149.831 331.944 150.511 331.581C151.19 331.212 151.961 331.027 152.822 331.027C154.141 331.027 155.163 331.344 155.89 331.977C156.622 332.609 156.988 333.503 156.988 334.657C156.988 335.29 156.824 335.935 156.496 336.591C156.168 337.247 155.605 338.012 154.809 338.885L151.899 341.952H157.401V344ZM167.579 338.709C167.579 340.479 167.213 341.832 166.48 342.77C165.748 343.707 164.676 344.176 163.264 344.176C161.869 344.176 160.803 343.716 160.064 342.796C159.326 341.876 158.948 340.558 158.931 338.841V336.485C158.931 334.698 159.3 333.342 160.038 332.416C160.782 331.49 161.852 331.027 163.246 331.027C164.641 331.027 165.707 331.487 166.445 332.407C167.184 333.321 167.562 334.637 167.579 336.354V338.709ZM165.039 336.125C165.039 335.064 164.893 334.294 164.6 333.813C164.312 333.327 163.861 333.084 163.246 333.084C162.648 333.084 162.206 333.315 161.919 333.778C161.638 334.235 161.488 334.953 161.471 335.932V339.043C161.471 340.086 161.611 340.862 161.893 341.372C162.18 341.876 162.637 342.128 163.264 342.128C163.885 342.128 164.333 341.885 164.608 341.398C164.884 340.912 165.027 340.168 165.039 339.166V336.125ZM176.816 339.184H178.267V341.231H176.816V344H174.276V341.231H169.029L168.915 339.632L174.25 331.203H176.816V339.184ZM171.446 339.184H174.276V334.666L174.109 334.956L171.446 339.184ZM184.12 344.176C182.726 344.176 181.589 343.748 180.71 342.893C179.837 342.037 179.4 340.897 179.4 339.474V339.228C179.4 338.272 179.585 337.42 179.954 336.67C180.323 335.914 180.845 335.334 181.519 334.93C182.198 334.52 182.972 334.314 183.839 334.314C185.14 334.314 186.162 334.725 186.906 335.545C187.656 336.365 188.031 337.528 188.031 339.034V340.071H181.976C182.058 340.692 182.304 341.19 182.714 341.565C183.13 341.94 183.654 342.128 184.287 342.128C185.266 342.128 186.03 341.773 186.581 341.064L187.829 342.462C187.448 343.001 186.933 343.423 186.282 343.728C185.632 344.026 184.911 344.176 184.12 344.176ZM183.83 336.371C183.326 336.371 182.916 336.541 182.6 336.881C182.289 337.221 182.09 337.707 182.002 338.34H185.535V338.138C185.523 337.575 185.371 337.142 185.078 336.837C184.785 336.526 184.369 336.371 183.83 336.371ZM195.317 338.885C194.655 339.535 193.882 339.86 192.997 339.86C191.866 339.86 190.961 339.474 190.281 338.7C189.602 337.921 189.262 336.872 189.262 335.554C189.262 334.716 189.443 333.948 189.807 333.251C190.176 332.548 190.688 332.003 191.345 331.616C192.001 331.224 192.739 331.027 193.56 331.027C194.403 331.027 195.153 331.238 195.81 331.66C196.466 332.082 196.976 332.688 197.339 333.479C197.702 334.271 197.887 335.176 197.893 336.195V337.136C197.893 339.269 197.362 340.944 196.302 342.163C195.241 343.382 193.738 344.032 191.793 344.114L191.169 344.123V342.005L191.731 341.996C193.94 341.896 195.136 340.859 195.317 338.885ZM193.621 337.918C194.031 337.918 194.383 337.812 194.676 337.602C194.975 337.391 195.2 337.136 195.353 336.837V335.791C195.353 334.93 195.188 334.262 194.86 333.787C194.532 333.312 194.093 333.075 193.542 333.075C193.032 333.075 192.613 333.31 192.285 333.778C191.957 334.241 191.793 334.824 191.793 335.527C191.793 336.225 191.951 336.799 192.268 337.25C192.59 337.695 193.041 337.918 193.621 337.918ZM208.053 334.604C208.053 335.226 207.897 335.776 207.587 336.257C207.276 336.737 206.849 337.121 206.304 337.408C206.925 337.707 207.417 338.12 207.78 338.647C208.144 339.169 208.325 339.784 208.325 340.493C208.325 341.63 207.938 342.529 207.165 343.191C206.392 343.848 205.34 344.176 204.01 344.176C202.68 344.176 201.625 343.845 200.846 343.183C200.066 342.521 199.677 341.624 199.677 340.493C199.677 339.784 199.858 339.166 200.222 338.639C200.585 338.111 201.074 337.701 201.689 337.408C201.145 337.121 200.717 336.737 200.406 336.257C200.102 335.776 199.949 335.226 199.949 334.604C199.949 333.515 200.312 332.647 201.039 332.003C201.766 331.353 202.753 331.027 204.001 331.027C205.243 331.027 206.228 331.35 206.954 331.994C207.687 332.633 208.053 333.503 208.053 334.604ZM205.776 340.309C205.776 339.752 205.615 339.307 205.293 338.973C204.971 338.639 204.537 338.472 203.992 338.472C203.453 338.472 203.022 338.639 202.7 338.973C202.378 339.301 202.217 339.746 202.217 340.309C202.217 340.854 202.375 341.293 202.691 341.627C203.008 341.961 203.447 342.128 204.01 342.128C204.561 342.128 204.991 341.967 205.302 341.645C205.618 341.322 205.776 340.877 205.776 340.309ZM205.513 334.728C205.513 334.229 205.381 333.831 205.117 333.532C204.854 333.228 204.481 333.075 204.001 333.075C203.526 333.075 203.157 333.222 202.894 333.515C202.63 333.808 202.498 334.212 202.498 334.728C202.498 335.237 202.63 335.647 202.894 335.958C203.157 336.269 203.529 336.424 204.01 336.424C204.49 336.424 204.859 336.269 205.117 335.958C205.381 335.647 205.513 335.237 205.513 334.728ZM218.661 338.709C218.661 340.479 218.295 341.832 217.562 342.77C216.83 343.707 215.758 344.176 214.346 344.176C212.951 344.176 211.885 343.716 211.146 342.796C210.408 341.876 210.03 340.558 210.013 338.841V336.485C210.013 334.698 210.382 333.342 211.12 332.416C211.864 331.49 212.934 331.027 214.328 331.027C215.723 331.027 216.789 331.487 217.527 332.407C218.266 333.321 218.644 334.637 218.661 336.354V338.709ZM216.121 336.125C216.121 335.064 215.975 334.294 215.682 333.813C215.395 333.327 214.943 333.084 214.328 333.084C213.73 333.084 213.288 333.315 213.001 333.778C212.72 334.235 212.57 334.953 212.553 335.932V339.043C212.553 340.086 212.693 340.862 212.975 341.372C213.262 341.876 213.719 342.128 214.346 342.128C214.967 342.128 215.415 341.885 215.69 341.398C215.966 340.912 216.109 340.168 216.121 339.166V336.125ZM228.997 338.709C228.997 340.479 228.631 341.832 227.898 342.77C227.166 343.707 226.094 344.176 224.682 344.176C223.287 344.176 222.221 343.716 221.482 342.796C220.744 341.876 220.366 340.558 220.349 338.841V336.485C220.349 334.698 220.718 333.342 221.456 332.416C222.2 331.49 223.27 331.027 224.664 331.027C226.059 331.027 227.125 331.487 227.863 332.407C228.602 333.321 228.979 334.637 228.997 336.354V338.709ZM226.457 336.125C226.457 335.064 226.311 334.294 226.018 333.813C225.73 333.327 225.279 333.084 224.664 333.084C224.066 333.084 223.624 333.315 223.337 333.778C223.056 334.235 222.906 334.953 222.889 335.932V339.043C222.889 340.086 223.029 340.862 223.311 341.372C223.598 341.876 224.055 342.128 224.682 342.128C225.303 342.128 225.751 341.885 226.026 341.398C226.302 340.912 226.445 340.168 226.457 339.166V336.125ZM236.661 338.885C235.999 339.535 235.226 339.86 234.341 339.86C233.21 339.86 232.305 339.474 231.625 338.7C230.945 337.921 230.605 336.872 230.605 335.554C230.605 334.716 230.787 333.948 231.15 333.251C231.52 332.548 232.032 332.003 232.688 331.616C233.345 331.224 234.083 331.027 234.903 331.027C235.747 331.027 236.497 331.238 237.153 331.66C237.81 332.082 238.319 332.688 238.683 333.479C239.046 334.271 239.23 335.176 239.236 336.195V337.136C239.236 339.269 238.706 340.944 237.646 342.163C236.585 343.382 235.082 344.032 233.137 344.114L232.513 344.123V342.005L233.075 341.996C235.284 341.896 236.479 340.859 236.661 338.885ZM234.965 337.918C235.375 337.918 235.727 337.812 236.02 337.602C236.318 337.391 236.544 337.136 236.696 336.837V335.791C236.696 334.93 236.532 334.262 236.204 333.787C235.876 333.312 235.437 333.075 234.886 333.075C234.376 333.075 233.957 333.31 233.629 333.778C233.301 334.241 233.137 334.824 233.137 335.527C233.137 336.225 233.295 336.799 233.611 337.25C233.934 337.695 234.385 337.918 234.965 337.918ZM246.997 338.885C246.335 339.535 245.562 339.86 244.677 339.86C243.546 339.86 242.641 339.474 241.961 338.7C241.281 337.921 240.941 336.872 240.941 335.554C240.941 334.716 241.123 333.948 241.486 333.251C241.855 332.548 242.368 332.003 243.024 331.616C243.681 331.224 244.419 331.027 245.239 331.027C246.083 331.027 246.833 331.238 247.489 331.66C248.146 332.082 248.655 332.688 249.019 333.479C249.382 334.271 249.566 335.176 249.572 336.195V337.136C249.572 339.269 249.042 340.944 247.981 342.163C246.921 343.382 245.418 344.032 243.473 344.114L242.849 344.123V342.005L243.411 341.996C245.62 341.896 246.815 340.859 246.997 338.885ZM245.301 337.918C245.711 337.918 246.062 337.812 246.355 337.602C246.654 337.391 246.88 337.136 247.032 336.837V335.791C247.032 334.93 246.868 334.262 246.54 333.787C246.212 333.312 245.772 333.075 245.222 333.075C244.712 333.075 244.293 333.31 243.965 333.778C243.637 334.241 243.473 334.824 243.473 335.527C243.473 336.225 243.631 336.799 243.947 337.25C244.27 337.695 244.721 337.918 245.301 337.918ZM259.732 334.604C259.732 335.226 259.577 335.776 259.267 336.257C258.956 336.737 258.528 337.121 257.983 337.408C258.604 337.707 259.097 338.12 259.46 338.647C259.823 339.169 260.005 339.784 260.005 340.493C260.005 341.63 259.618 342.529 258.845 343.191C258.071 343.848 257.02 344.176 255.689 344.176C254.359 344.176 253.305 343.845 252.525 343.183C251.746 342.521 251.356 341.624 251.356 340.493C251.356 339.784 251.538 339.166 251.901 338.639C252.265 338.111 252.754 337.701 253.369 337.408C252.824 337.121 252.396 336.737 252.086 336.257C251.781 335.776 251.629 335.226 251.629 334.604C251.629 333.515 251.992 332.647 252.719 332.003C253.445 331.353 254.433 331.027 255.681 331.027C256.923 331.027 257.907 331.35 258.634 331.994C259.366 332.633 259.732 333.503 259.732 334.604ZM257.456 340.309C257.456 339.752 257.295 339.307 256.973 338.973C256.65 338.639 256.217 338.472 255.672 338.472C255.133 338.472 254.702 338.639 254.38 338.973C254.058 339.301 253.896 339.746 253.896 340.309C253.896 340.854 254.055 341.293 254.371 341.627C254.688 341.961 255.127 342.128 255.689 342.128C256.24 342.128 256.671 341.967 256.981 341.645C257.298 341.322 257.456 340.877 257.456 340.309ZM257.192 334.728C257.192 334.229 257.061 333.831 256.797 333.532C256.533 333.228 256.161 333.075 255.681 333.075C255.206 333.075 254.837 333.222 254.573 333.515C254.31 333.808 254.178 334.212 254.178 334.728C254.178 335.237 254.31 335.647 254.573 335.958C254.837 336.269 255.209 336.424 255.689 336.424C256.17 336.424 256.539 336.269 256.797 335.958C257.061 335.647 257.192 335.237 257.192 334.728ZM266.21 344.176C264.815 344.176 263.679 343.748 262.8 342.893C261.927 342.037 261.49 340.897 261.49 339.474V339.228C261.49 338.272 261.675 337.42 262.044 336.67C262.413 335.914 262.935 335.334 263.608 334.93C264.288 334.52 265.062 334.314 265.929 334.314C267.229 334.314 268.252 334.725 268.996 335.545C269.746 336.365 270.121 337.528 270.121 339.034V340.071H264.065C264.147 340.692 264.394 341.19 264.804 341.565C265.22 341.94 265.744 342.128 266.377 342.128C267.355 342.128 268.12 341.773 268.671 341.064L269.919 342.462C269.538 343.001 269.022 343.423 268.372 343.728C267.722 344.026 267.001 344.176 266.21 344.176ZM265.92 336.371C265.416 336.371 265.006 336.541 264.689 336.881C264.379 337.221 264.18 337.707 264.092 338.34H267.625V338.138C267.613 337.575 267.461 337.142 267.168 336.837C266.875 336.526 266.459 336.371 265.92 336.371ZM275.526 342.128C275.995 342.128 276.376 341.999 276.669 341.741C276.962 341.483 277.114 341.141 277.126 340.713H279.508C279.502 341.357 279.326 341.949 278.98 342.488C278.635 343.021 278.16 343.438 277.557 343.736C276.959 344.029 276.297 344.176 275.57 344.176C274.211 344.176 273.139 343.745 272.354 342.884C271.568 342.017 271.176 340.821 271.176 339.298V339.131C271.176 337.666 271.565 336.497 272.345 335.624C273.124 334.751 274.193 334.314 275.553 334.314C276.742 334.314 277.694 334.654 278.409 335.334C279.13 336.008 279.496 336.907 279.508 338.032H277.126C277.114 337.54 276.962 337.142 276.669 336.837C276.376 336.526 275.989 336.371 275.509 336.371C274.917 336.371 274.469 336.588 274.164 337.021C273.865 337.449 273.716 338.146 273.716 339.113V339.377C273.716 340.355 273.865 341.059 274.164 341.486C274.463 341.914 274.917 342.128 275.526 342.128ZM281.652 344V336.354H280.237V334.49H281.652V333.682C281.652 332.615 281.957 331.789 282.566 331.203C283.182 330.611 284.04 330.315 285.142 330.315C285.493 330.315 285.924 330.374 286.434 330.491L286.407 332.46C286.196 332.407 285.938 332.381 285.634 332.381C284.679 332.381 284.201 332.829 284.201 333.726V334.49H286.091V336.354H284.201V344H281.652ZM287.541 342.752C287.541 342.348 287.676 342.02 287.945 341.768C288.221 341.516 288.563 341.39 288.974 341.39C289.39 341.39 289.732 341.516 290.002 341.768C290.277 342.02 290.415 342.348 290.415 342.752C290.415 343.15 290.28 343.476 290.011 343.728C289.741 343.974 289.396 344.097 288.974 344.097C288.558 344.097 288.215 343.974 287.945 343.728C287.676 343.476 287.541 343.15 287.541 342.752ZM292.779 342.752C292.779 342.348 292.914 342.02 293.184 341.768C293.459 341.516 293.802 341.39 294.212 341.39C294.628 341.39 294.971 341.516 295.24 341.768C295.516 342.02 295.653 342.348 295.653 342.752C295.653 343.15 295.519 343.476 295.249 343.728C294.979 343.974 294.634 344.097 294.212 344.097C293.796 344.097 293.453 343.974 293.184 343.728C292.914 343.476 292.779 343.15 292.779 342.752ZM298.018 342.752C298.018 342.348 298.152 342.02 298.422 341.768C298.697 341.516 299.04 341.39 299.45 341.39C299.866 341.39 300.209 341.516 300.479 341.768C300.754 342.02 300.892 342.348 300.892 342.752C300.892 343.15 300.757 343.476 300.487 343.728C300.218 343.974 299.872 344.097 299.45 344.097C299.034 344.097 298.691 343.974 298.422 343.728C298.152 343.476 298.018 343.15 298.018 342.752Z" fill="black"/>
<rect x="1" y="315" width="320" height="45" stroke="black"/>
<path d="M104.92 68.877H103.52V72H101.762V63.4688H104.932C105.939 63.4688 106.717 63.6934 107.264 64.1426C107.811 64.5918 108.084 65.2266 108.084 66.0469C108.084 66.6289 107.957 67.1152 107.703 67.5059C107.453 67.8926 107.072 68.2012 106.561 68.4316L108.406 71.918V72H106.52L104.92 68.877ZM103.52 67.4531H104.938C105.379 67.4531 105.721 67.3418 105.963 67.1191C106.205 66.8926 106.326 66.582 106.326 66.1875C106.326 65.7852 106.211 65.4688 105.98 65.2383C105.754 65.0078 105.404 64.8926 104.932 64.8926H103.52V67.4531ZM112.988 72C112.91 71.8477 112.854 71.6582 112.818 71.4316C112.408 71.8887 111.875 72.1172 111.219 72.1172C110.598 72.1172 110.082 71.9375 109.672 71.5781C109.266 71.2188 109.062 70.7656 109.062 70.2188C109.062 69.5469 109.311 69.0312 109.807 68.6719C110.307 68.3125 111.027 68.1309 111.969 68.127H112.748V67.7637C112.748 67.4707 112.672 67.2363 112.52 67.0605C112.371 66.8848 112.135 66.7969 111.811 66.7969C111.525 66.7969 111.301 66.8652 111.137 67.002C110.977 67.1387 110.896 67.3262 110.896 67.5645H109.203C109.203 67.1973 109.316 66.8574 109.543 66.5449C109.77 66.2324 110.09 65.9883 110.504 65.8125C110.918 65.6328 111.383 65.543 111.898 65.543C112.68 65.543 113.299 65.7402 113.756 66.1348C114.217 66.5254 114.447 67.0762 114.447 67.7871V70.5352C114.451 71.1367 114.535 71.5918 114.699 71.9004V72H112.988ZM111.588 70.8223C111.838 70.8223 112.068 70.7676 112.279 70.6582C112.49 70.5449 112.646 70.3945 112.748 70.207V69.1172H112.115C111.268 69.1172 110.816 69.4102 110.762 69.9961L110.756 70.0957C110.756 70.3066 110.83 70.4805 110.979 70.6172C111.127 70.7539 111.33 70.8223 111.588 70.8223ZM117.307 65.6602L117.359 66.3926C117.812 65.8262 118.42 65.543 119.182 65.543C119.854 65.543 120.354 65.7402 120.682 66.1348C121.01 66.5293 121.178 67.1191 121.186 67.9043V72H119.492V67.9453C119.492 67.5859 119.414 67.3262 119.258 67.166C119.102 67.002 118.842 66.9199 118.479 66.9199C118.002 66.9199 117.645 67.123 117.406 67.5293V72H115.713V65.6602H117.307ZM122.211 68.7832C122.211 67.7949 122.432 67.0078 122.873 66.4219C123.318 65.8359 123.926 65.543 124.695 65.543C125.312 65.543 125.822 65.7734 126.225 66.2344V63H127.924V72H126.395L126.312 71.3262C125.891 71.8535 125.348 72.1172 124.684 72.1172C123.938 72.1172 123.338 71.8242 122.885 71.2383C122.436 70.6484 122.211 69.8301 122.211 68.7832ZM123.904 68.9062C123.904 69.5 124.008 69.9551 124.215 70.2715C124.422 70.5879 124.723 70.7461 125.117 70.7461C125.641 70.7461 126.01 70.5254 126.225 70.084V67.582C126.014 67.1406 125.648 66.9199 125.129 66.9199C124.312 66.9199 123.904 67.582 123.904 68.9062ZM128.973 68.7715C128.973 68.1426 129.094 67.582 129.336 67.0898C129.578 66.5977 129.926 66.2168 130.379 65.9473C130.836 65.6777 131.365 65.543 131.967 65.543C132.822 65.543 133.52 65.8047 134.059 66.3281C134.602 66.8516 134.904 67.5625 134.967 68.4609L134.979 68.8945C134.979 69.8672 134.707 70.6484 134.164 71.2383C133.621 71.8242 132.893 72.1172 131.979 72.1172C131.064 72.1172 130.334 71.8242 129.787 71.2383C129.244 70.6523 128.973 69.8555 128.973 68.8477V68.7715ZM130.666 68.8945C130.666 69.4961 130.779 69.957 131.006 70.2773C131.232 70.5938 131.557 70.752 131.979 70.752C132.389 70.752 132.709 70.5957 132.939 70.2832C133.17 69.9668 133.285 69.4629 133.285 68.7715C133.285 68.1816 133.17 67.7246 132.939 67.4004C132.709 67.0762 132.385 66.9141 131.967 66.9141C131.553 66.9141 131.232 67.0762 131.006 67.4004C130.779 67.7207 130.666 68.2188 130.666 68.8945ZM137.609 65.6602L137.662 66.3691C138.111 65.8184 138.719 65.543 139.484 65.543C140.301 65.543 140.861 65.8652 141.166 66.5098C141.611 65.8652 142.246 65.543 143.07 65.543C143.758 65.543 144.27 65.7441 144.605 66.1465C144.941 66.5449 145.109 67.1465 145.109 67.9512V72H143.41V67.957C143.41 67.5977 143.34 67.3359 143.199 67.1719C143.059 67.0039 142.811 66.9199 142.455 66.9199C141.947 66.9199 141.596 67.1621 141.4 67.6465L141.406 72H139.713V67.9629C139.713 67.5957 139.641 67.3301 139.496 67.166C139.352 67.002 139.105 66.9199 138.758 66.9199C138.277 66.9199 137.93 67.1191 137.715 67.5176V72H136.021V65.6602H137.609ZM148.203 72H146.504V65.6602H148.203V72ZM146.404 64.0195C146.404 63.7656 146.488 63.5566 146.656 63.3926C146.828 63.2285 147.061 63.1465 147.354 63.1465C147.643 63.1465 147.873 63.2285 148.045 63.3926C148.217 63.5566 148.303 63.7656 148.303 64.0195C148.303 64.2773 148.215 64.4883 148.039 64.6523C147.867 64.8164 147.639 64.8984 147.354 64.8984C147.068 64.8984 146.838 64.8164 146.662 64.6523C146.49 64.4883 146.404 64.2773 146.404 64.0195ZM153.037 70.248C153.037 70.041 152.934 69.8789 152.727 69.7617C152.523 69.6406 152.195 69.5332 151.742 69.4395C150.234 69.123 149.48 68.4824 149.48 67.5176C149.48 66.9551 149.713 66.4863 150.178 66.1113C150.646 65.7324 151.258 65.543 152.012 65.543C152.816 65.543 153.459 65.7324 153.939 66.1113C154.424 66.4902 154.666 66.9824 154.666 67.5879H152.973C152.973 67.3457 152.895 67.1465 152.738 66.9902C152.582 66.8301 152.338 66.75 152.006 66.75C151.721 66.75 151.5 66.8145 151.344 66.9434C151.188 67.0723 151.109 67.2363 151.109 67.4355C151.109 67.623 151.197 67.7754 151.373 67.8926C151.553 68.0059 151.854 68.1055 152.275 68.1914C152.697 68.2734 153.053 68.3672 153.342 68.4727C154.236 68.8008 154.684 69.3691 154.684 70.1777C154.684 70.7559 154.436 71.2246 153.939 71.584C153.443 71.9395 152.803 72.1172 152.018 72.1172C151.486 72.1172 151.014 72.0234 150.6 71.8359C150.189 71.6445 149.867 71.3848 149.633 71.0566C149.398 70.7246 149.281 70.3672 149.281 69.9844H150.887C150.902 70.2852 151.014 70.5156 151.221 70.6758C151.428 70.8359 151.705 70.916 152.053 70.916C152.377 70.916 152.621 70.8555 152.785 70.7344C152.953 70.6094 153.037 70.4473 153.037 70.248ZM157.566 72H155.867V65.6602H157.566V72ZM155.768 64.0195C155.768 63.7656 155.852 63.5566 156.02 63.3926C156.191 63.2285 156.424 63.1465 156.717 63.1465C157.006 63.1465 157.236 63.2285 157.408 63.3926C157.58 63.5566 157.666 63.7656 157.666 64.0195C157.666 64.2773 157.578 64.4883 157.402 64.6523C157.23 64.8164 157.002 64.8984 156.717 64.8984C156.432 64.8984 156.201 64.8164 156.025 64.6523C155.854 64.4883 155.768 64.2773 155.768 64.0195ZM160.525 65.6602L160.578 66.3926C161.031 65.8262 161.639 65.543 162.4 65.543C163.072 65.543 163.572 65.7402 163.9 66.1348C164.229 66.5293 164.396 67.1191 164.404 67.9043V72H162.711V67.9453C162.711 67.5859 162.633 67.3262 162.477 67.166C162.32 67.002 162.061 66.9199 161.697 66.9199C161.221 66.9199 160.863 67.123 160.625 67.5293V72H158.932V65.6602H160.525ZM165.447 68.7832C165.447 67.8105 165.678 67.0273 166.139 66.4336C166.604 65.8398 167.229 65.543 168.014 65.543C168.709 65.543 169.25 65.7812 169.637 66.2578L169.707 65.6602H171.242V71.7891C171.242 72.3438 171.115 72.8262 170.861 73.2363C170.611 73.6465 170.258 73.959 169.801 74.1738C169.344 74.3887 168.809 74.4961 168.195 74.4961C167.73 74.4961 167.277 74.4023 166.836 74.2148C166.395 74.0312 166.061 73.793 165.834 73.5L166.584 72.4688C167.006 72.9414 167.518 73.1777 168.119 73.1777C168.568 73.1777 168.918 73.0566 169.168 72.8145C169.418 72.5762 169.543 72.2363 169.543 71.7949V71.4551C169.152 71.8965 168.639 72.1172 168.002 72.1172C167.24 72.1172 166.623 71.8203 166.15 71.2266C165.682 70.6289 165.447 69.8379 165.447 68.8535V68.7832ZM167.141 68.9062C167.141 69.4805 167.256 69.9316 167.486 70.2598C167.717 70.584 168.033 70.7461 168.436 70.7461C168.951 70.7461 169.32 70.5527 169.543 70.166V67.5C169.316 67.1133 168.951 66.9199 168.447 66.9199C168.041 66.9199 167.721 67.0859 167.486 67.418C167.256 67.75 167.141 68.2461 167.141 68.9062ZM180.072 69.7617C180.072 69.4297 179.955 69.1758 179.721 69C179.486 68.8203 179.064 68.6328 178.455 68.4375C177.846 68.2383 177.363 68.043 177.008 67.8516C176.039 67.3281 175.555 66.623 175.555 65.7363C175.555 65.2754 175.684 64.8652 175.941 64.5059C176.203 64.1426 176.576 63.8594 177.061 63.6562C177.549 63.4531 178.096 63.3516 178.701 63.3516C179.311 63.3516 179.854 63.4629 180.33 63.6855C180.807 63.9043 181.176 64.2148 181.438 64.6172C181.703 65.0195 181.836 65.4766 181.836 65.9883H180.078C180.078 65.5977 179.955 65.2949 179.709 65.0801C179.463 64.8613 179.117 64.752 178.672 64.752C178.242 64.752 177.908 64.8438 177.67 65.0273C177.432 65.207 177.312 65.4453 177.312 65.7422C177.312 66.0195 177.451 66.252 177.729 66.4395C178.01 66.627 178.422 66.8027 178.965 66.9668C179.965 67.2676 180.693 67.6406 181.15 68.0859C181.607 68.5312 181.836 69.0859 181.836 69.75C181.836 70.4883 181.557 71.0684 180.998 71.4902C180.439 71.9082 179.688 72.1172 178.742 72.1172C178.086 72.1172 177.488 71.998 176.949 71.7598C176.41 71.5176 175.998 71.1875 175.713 70.7695C175.432 70.3516 175.291 69.8672 175.291 69.3164H177.055C177.055 70.2578 177.617 70.7285 178.742 70.7285C179.16 70.7285 179.486 70.6445 179.721 70.4766C179.955 70.3047 180.072 70.0664 180.072 69.7617ZM185.838 72.1172C184.908 72.1172 184.15 71.832 183.564 71.2617C182.982 70.6914 182.691 69.9316 182.691 68.9824V68.8184C182.691 68.1816 182.814 67.6133 183.061 67.1133C183.307 66.6094 183.654 66.2227 184.104 65.9531C184.557 65.6797 185.072 65.543 185.65 65.543C186.518 65.543 187.199 65.8164 187.695 66.3633C188.195 66.9102 188.445 67.6855 188.445 68.6895V69.3809H184.408C184.463 69.7949 184.627 70.127 184.9 70.377C185.178 70.627 185.527 70.752 185.949 70.752C186.602 70.752 187.111 70.5156 187.479 70.043L188.311 70.9746C188.057 71.334 187.713 71.6152 187.279 71.8184C186.846 72.0176 186.365 72.1172 185.838 72.1172ZM185.645 66.9141C185.309 66.9141 185.035 67.0273 184.824 67.2539C184.617 67.4805 184.484 67.8047 184.426 68.2266H186.781V68.0918C186.773 67.7168 186.672 67.4277 186.477 67.2246C186.281 67.0176 186.004 66.9141 185.645 66.9141ZM192.049 70.752C192.361 70.752 192.615 70.666 192.811 70.4941C193.006 70.3223 193.107 70.0938 193.115 69.8086H194.703C194.699 70.2383 194.582 70.6328 194.352 70.9922C194.121 71.3477 193.805 71.625 193.402 71.8242C193.004 72.0195 192.562 72.1172 192.078 72.1172C191.172 72.1172 190.457 71.8301 189.934 71.2559C189.41 70.6777 189.148 69.8809 189.148 68.8652V68.7539C189.148 67.7773 189.408 66.998 189.928 66.416C190.447 65.834 191.16 65.543 192.066 65.543C192.859 65.543 193.494 65.7695 193.971 66.2227C194.451 66.6719 194.695 67.2715 194.703 68.0215H193.115C193.107 67.6934 193.006 67.4277 192.811 67.2246C192.615 67.0176 192.357 66.9141 192.037 66.9141C191.643 66.9141 191.344 67.0586 191.141 67.3477C190.941 67.6328 190.842 68.0977 190.842 68.7422V68.918C190.842 69.5703 190.941 70.0391 191.141 70.3242C191.34 70.6094 191.643 70.752 192.049 70.752ZM199.232 67.248C199.002 67.2168 198.799 67.2012 198.623 67.2012C197.982 67.2012 197.562 67.418 197.363 67.8516V72H195.67V65.6602H197.27L197.316 66.416C197.656 65.834 198.127 65.543 198.729 65.543C198.916 65.543 199.092 65.5684 199.256 65.6191L199.232 67.248ZM202.854 72.1172C201.924 72.1172 201.166 71.832 200.58 71.2617C199.998 70.6914 199.707 69.9316 199.707 68.9824V68.8184C199.707 68.1816 199.83 67.6133 200.076 67.1133C200.322 66.6094 200.67 66.2227 201.119 65.9531C201.572 65.6797 202.088 65.543 202.666 65.543C203.533 65.543 204.215 65.8164 204.711 66.3633C205.211 66.9102 205.461 67.6855 205.461 68.6895V69.3809H201.424C201.479 69.7949 201.643 70.127 201.916 70.377C202.193 70.627 202.543 70.752 202.965 70.752C203.617 70.752 204.127 70.5156 204.494 70.043L205.326 70.9746C205.072 71.334 204.729 71.6152 204.295 71.8184C203.861 72.0176 203.381 72.1172 202.854 72.1172ZM202.66 66.9141C202.324 66.9141 202.051 67.0273 201.84 67.2539C201.633 67.4805 201.5 67.8047 201.441 68.2266H203.797V68.0918C203.789 67.7168 203.688 67.4277 203.492 67.2246C203.297 67.0176 203.02 66.9141 202.66 66.9141ZM208.455 64.1016V65.6602H209.539V66.9023H208.455V70.0664C208.455 70.3008 208.5 70.4688 208.59 70.5703C208.68 70.6719 208.852 70.7227 209.105 70.7227C209.293 70.7227 209.459 70.709 209.604 70.6816V71.9648C209.271 72.0664 208.93 72.1172 208.578 72.1172C207.391 72.1172 206.785 71.5176 206.762 70.3184V66.9023H205.836V65.6602H206.762V64.1016H208.455ZM210.57 71.168C210.57 70.8984 210.66 70.6797 210.84 70.5117C211.023 70.3438 211.252 70.2598 211.525 70.2598C211.803 70.2598 212.031 70.3438 212.211 70.5117C212.395 70.6797 212.486 70.8984 212.486 71.168C212.486 71.4336 212.396 71.6504 212.217 71.8184C212.037 71.9824 211.807 72.0645 211.525 72.0645C211.248 72.0645 211.02 71.9824 210.84 71.8184C210.66 71.6504 210.57 71.4336 210.57 71.168ZM214.062 71.168C214.062 70.8984 214.152 70.6797 214.332 70.5117C214.516 70.3438 214.744 70.2598 215.018 70.2598C215.295 70.2598 215.523 70.3438 215.703 70.5117C215.887 70.6797 215.979 70.8984 215.979 71.168C215.979 71.4336 215.889 71.6504 215.709 71.8184C215.529 71.9824 215.299 72.0645 215.018 72.0645C214.74 72.0645 214.512 71.9824 214.332 71.8184C214.152 71.6504 214.062 71.4336 214.062 71.168ZM217.555 71.168C217.555 70.8984 217.645 70.6797 217.824 70.5117C218.008 70.3438 218.236 70.2598 218.51 70.2598C218.787 70.2598 219.016 70.3438 219.195 70.5117C219.379 70.6797 219.471 70.8984 219.471 71.168C219.471 71.4336 219.381 71.6504 219.201 71.8184C219.021 71.9824 218.791 72.0645 218.51 72.0645C218.232 72.0645 218.004 71.9824 217.824 71.8184C217.645 71.6504 217.555 71.4336 217.555 71.168Z" fill="black"/>
<rect x="87.5" y="52.5" width="147" height="30" rx="3.5" stroke="black"/>
<defs>
<filter id="filter0_d_65_28" x="181" y="139" width="20" height="20" filterUnits="userSpaceOnUse" color-interpolation-filters="sRGB">
<feFlood flood-opacity="0" result="BackgroundImageFix"/>
<feColorMatrix in="SourceAlpha" type="matrix" values="0 0 0 0 0 0 0 0 0 0 0 0 0 0 0 0 0 0 127 0" result="hardAlpha"/>
<feOffset dx="2" dy="2"/>
<feGaussianBlur stdDeviation="1"/>
<feComposite in2="hardAlpha" operator="out"/>
<feColorMatrix type="matrix" values="0 0 0 0 0 0 0 0 0 0 0 0 0 0 0 0 0 0 0.25 0"/>
<feBlend mode="normal" in2="BackgroundImageFix" result="effect1_dropShadow_65_28"/>
<feBlend mode="normal" in="SourceGraphic" in2="effect1_dropShadow_65_28" result="shape"/>
</filter>
<filter id="filter1_d_65_28" x="201" y="208" width="20" height="20" filterUnits="userSpaceOnUse" color-interpolation-filters="sRGB">
<feFlood flood-opacity="0" result="BackgroundImageFix"/>
<feColorMatrix in="SourceAlpha" type="matrix" values="0 0 0 0 0 0 0 0 0 0 0 0 0 0 0 0 0 0 127 0" result="hardAlpha"/>
<feOffset dx="2" dy="2"/>
<feGaussianBlur stdDeviation="1"/>
<feComposite in2="hardAlpha" operator="out"/>
<feColorMatrix type="matrix" values="0 0 0 0 0 0 0 0 0 0 0 0 0 0 0 0 0 0 0.25 0"/>
<feBlend mode="normal" in2="BackgroundImageFix" result="effect1_dropShadow_65_28"/>
<feBlend mode="normal" in="SourceGraphic" in2="effect1_dropShadow_65_28" result="shape"/>
</filter>
<filter id="filter2_d_65_28" x="255" y="172" width="20" height="20" filterUnits="userSpaceOnUse" color-interpolation-filters="sRGB">
<feFlood flood-opacity="0" result="BackgroundImageFix"/>
<feColorMatrix in="SourceAlpha" type="matrix" values="0 0 0 0 0 0 0 0 0 0 0 0 0 0 0 0 0 0 127 0" result="hardAlpha"/>
<feOffset dx="2" dy="2"/>
<feGaussianBlur stdDeviation="1"/>
<feComposite in2="hardAlpha" operator="out"/>
<feColorMatrix type="matrix" values="0 0 0 0 0 0 0 0 0 0 0 0 0 0 0 0 0 0 0.25 0"/>
<feBlend mode="normal" in2="BackgroundImageFix" result="effect1_dropShadow_65_28"/>
<feBlend mode="normal" in="SourceGraphic" in2="effect1_dropShadow_65_28" result="shape"/>
</filter>
</defs>
</svg>
