<svg width="320" height="360" viewBox="0 0 320 360" fill="none" xmlns="http://www.w3.org/2000/svg">
<rect width="320" height="360" rx="8" fill="white"/>
<g clip-path="url(#clip0_66_68)">
<path d="M183.784 145.467V109.284H141.216V145.467C106.493 147.135 79 166.228 79 189.51V233.716H98.6474H226.353H246.001V189.51C246 166.228 218.506 147.135 183.784 145.467ZM167.61 112.559C167.61 115.834 165.052 118.261 161.914 118.261C158.77 118.261 156.213 115.834 156.213 112.559H167.61ZM144.49 145.304V112.559H152.414C152.414 115.834 156.676 122.058 161.914 122.058C167.15 122.058 171.409 115.834 171.409 112.559H180.51V145.304H178.873H146.128H144.49ZM101.921 230.442V207.52H223.079V230.442H101.921ZM242.726 230.442H226.353V204.246H98.6474V230.442H82.2746V189.51C82.2746 166.939 110.92 148.579 146.128 148.579H178.873C214.08 148.579 242.726 166.939 242.726 189.51V230.442Z" fill="black"/>
<path d="M223.079 184.598H98.6474V187.873H223.079V184.598Z" fill="black"/>
<path d="M214.346 169.316C218.455 169.316 221.442 167.594 221.442 165.223C221.442 162.852 218.458 161.129 214.346 161.129C210.233 161.129 207.25 162.852 207.25 165.223C207.25 167.594 210.237 169.316 214.346 169.316ZM214.346 164.404C216.293 164.404 217.496 164.895 217.981 165.223C217.496 165.551 216.287 166.042 214.346 166.042C212.404 166.042 211.192 165.551 210.71 165.223C211.196 164.895 212.404 164.404 214.346 164.404Z" fill="black"/>
</g>
<defs>
<clipPath id="clip0_66_68">
<rect width="167" height="167" fill="white" transform="translate(79 88)"/>
</clipPath>
</defs>
</svg>
