<svg width="123" height="46" viewBox="0 0 123 46" fill="none" xmlns="http://www.w3.org/2000/svg">
<path d="M15.8164 13.8555C15.8164 15.5352 15.5195 17.0078 14.9258 18.2734C14.332 19.5391 13.4805 20.5156 12.3711 21.2031C11.2695 21.8906 10.0039 22.2344 8.57422 22.2344C7.16016 22.2344 5.89844 21.8945 4.78906 21.2148C3.67969 20.5352 2.82031 19.5664 2.21094 18.3086C1.60156 17.043 1.29297 15.5898 1.28516 13.9492V13.1055C1.28516 11.4258 1.58594 9.94922 2.1875 8.67578C2.79688 7.39453 3.65234 6.41406 4.75391 5.73438C5.86328 5.04687 7.12891 4.70312 8.55078 4.70312C9.97266 4.70312 11.2344 5.04687 12.3359 5.73438C13.4453 6.41406 14.3008 7.39453 14.9023 8.67578C15.5117 9.94922 15.8164 11.4219 15.8164 13.0938V13.8555ZM12.2539 13.082C12.2539 11.293 11.9336 9.93359 11.293 9.00391C10.6523 8.07422 9.73828 7.60938 8.55078 7.60938C7.37109 7.60938 6.46094 8.07031 5.82031 8.99219C5.17969 9.90625 4.85547 11.25 4.84766 13.0234V13.8555C4.84766 15.5977 5.16797 16.9492 5.80859 17.9102C6.44922 18.8711 7.37109 19.3516 8.57422 19.3516C9.75391 19.3516 10.6602 18.8906 11.293 17.9688C11.9258 17.0391 12.2461 15.6875 12.2539 13.9141V13.082ZM24.6875 15.7539H21.8867V22H18.3711V4.9375H24.7109C26.7266 4.9375 28.2812 5.38672 29.375 6.28516C30.4688 7.18359 31.0156 8.45312 31.0156 10.0938C31.0156 11.2578 30.7617 12.2305 30.2539 13.0117C29.7539 13.7852 28.9922 14.4023 27.9688 14.8633L31.6602 21.8359V22H27.8867L24.6875 15.7539ZM21.8867 12.9062H24.7227C25.6055 12.9062 26.2891 12.6836 26.7734 12.2383C27.2578 11.7852 27.5 11.1641 27.5 10.375C27.5 9.57031 27.2695 8.9375 26.8086 8.47656C26.3555 8.01562 25.6562 7.78516 24.7109 7.78516H21.8867V12.9062ZM37.4375 22H33.9219V4.9375H37.4375V22ZM54.207 19.8438C53.5742 20.6016 52.6797 21.1914 51.5234 21.6133C50.3672 22.0273 49.0859 22.2344 47.6797 22.2344C46.2031 22.2344 44.9062 21.9141 43.7891 21.2734C42.6797 20.625 41.8203 19.6875 41.2109 18.4609C40.6094 17.2344 40.3008 15.793 40.2852 14.1367V12.9766C40.2852 11.2734 40.5703 9.80078 41.1406 8.55859C41.7188 7.30859 42.5469 6.35547 43.625 5.69922C44.7109 5.03516 45.9805 4.70312 47.4336 4.70312C49.457 4.70312 51.0391 5.1875 52.1797 6.15625C53.3203 7.11719 53.9961 8.51953 54.207 10.3633H50.7852C50.6289 9.38672 50.2812 8.67188 49.7422 8.21875C49.2109 7.76562 48.4766 7.53906 47.5391 7.53906C46.3438 7.53906 45.4336 7.98828 44.8086 8.88672C44.1836 9.78516 43.8672 11.1211 43.8594 12.8945V13.9844C43.8594 15.7734 44.1992 17.125 44.8789 18.0391C45.5586 18.9531 46.5547 19.4102 47.8672 19.4102C49.1875 19.4102 50.1289 19.1289 50.6914 18.5664V15.625H47.4922V13.0352H54.207V19.8438ZM66.6992 18.4844H60.5352L59.3633 22H55.625L61.9766 4.9375H65.2344L71.6211 22H67.8828L66.6992 18.4844ZM61.4844 15.6367H65.75L63.6055 9.25L61.4844 15.6367ZM77.8086 4.9375L82.1914 17.3125L86.5508 4.9375H91.168V22H87.6406V17.3359L87.9922 9.28516L83.3867 22H80.9727L76.3789 9.29688L76.7305 17.3359V22H73.2148V4.9375H77.8086ZM97.9766 22H94.4609V4.9375H97.9766V22Z" fill="black"/>
<path d="M50.8887 39V29.0469H54.375C55.5827 29.0469 56.4987 29.2793 57.123 29.7441C57.7474 30.2044 58.0596 30.8812 58.0596 31.7744C58.0596 32.262 57.9342 32.6927 57.6836 33.0664C57.4329 33.4355 57.0843 33.7067 56.6377 33.8799C57.1481 34.0075 57.5492 34.265 57.8408 34.6523C58.137 35.0397 58.2852 35.5137 58.2852 36.0742C58.2852 37.0312 57.9798 37.7559 57.3691 38.248C56.7585 38.7402 55.888 38.9909 54.7578 39H50.8887ZM52.9395 34.666V37.3525H54.6963C55.1794 37.3525 55.5553 37.2386 55.8242 37.0107C56.0977 36.7783 56.2344 36.4593 56.2344 36.0537C56.2344 35.1423 55.7627 34.6797 54.8193 34.666H52.9395ZM52.9395 33.2168H54.457C55.4915 33.1986 56.0088 32.7861 56.0088 31.9795C56.0088 31.5283 55.8766 31.2048 55.6123 31.0088C55.3525 30.8083 54.9401 30.708 54.375 30.708H52.9395V33.2168ZM62.4619 36.2041L63.8291 31.6035H65.9482L62.9746 40.1484L62.8105 40.5381C62.3685 41.5042 61.6393 41.9873 60.623 41.9873C60.3359 41.9873 60.0443 41.944 59.748 41.8574V40.3604L60.0488 40.3672C60.4225 40.3672 60.7005 40.3102 60.8828 40.1963C61.0697 40.0824 61.2155 39.8932 61.3203 39.6289L61.5527 39.0205L58.9619 31.6035H61.0879L62.4619 36.2041ZM72.5791 29.7852V31.6035H73.8438V33.0527H72.5791V36.7441C72.5791 37.0176 72.6315 37.2135 72.7363 37.332C72.8411 37.4505 73.0417 37.5098 73.3379 37.5098C73.5566 37.5098 73.7503 37.4938 73.9189 37.4619V38.959C73.5316 39.0775 73.1328 39.1367 72.7227 39.1367C71.3372 39.1367 70.6309 38.4372 70.6035 37.0381V33.0527H69.5234V31.6035H70.6035V29.7852H72.5791ZM76.7627 31.6035L76.8242 32.458C77.3529 31.7972 78.0615 31.4668 78.9502 31.4668C79.734 31.4668 80.3174 31.6969 80.7002 32.1572C81.083 32.6175 81.279 33.3057 81.2881 34.2217V39H79.3125V34.2695C79.3125 33.8503 79.2214 33.5472 79.0391 33.3604C78.8568 33.1689 78.5537 33.0732 78.1299 33.0732C77.5739 33.0732 77.1569 33.3102 76.8789 33.7842V39H74.9033V31.6035H76.7627ZM89.457 35.3701C89.457 36.555 89.2041 37.4801 88.6982 38.1455C88.1924 38.8063 87.486 39.1367 86.5791 39.1367C85.777 39.1367 85.1367 38.8291 84.6582 38.2139L84.5693 39H82.792V28.5H84.7676V32.2666C85.2233 31.7334 85.8226 31.4668 86.5654 31.4668C87.4678 31.4668 88.1742 31.7995 88.6846 32.4648C89.1995 33.1257 89.457 34.0576 89.457 35.2607V35.3701ZM87.4814 35.2266C87.4814 34.4792 87.363 33.9346 87.126 33.5928C86.889 33.2464 86.5358 33.0732 86.0664 33.0732C85.4375 33.0732 85.0046 33.3307 84.7676 33.8457V36.7646C85.0091 37.2842 85.4466 37.5439 86.0801 37.5439C86.7181 37.5439 87.1374 37.2295 87.3379 36.6006C87.4336 36.2998 87.4814 35.8418 87.4814 35.2266ZM98.624 35.6846C98.5465 36.7555 98.1501 37.5986 97.4346 38.2139C96.7236 38.8291 95.7848 39.1367 94.6182 39.1367C93.3421 39.1367 92.3372 38.7083 91.6035 37.8516C90.8743 36.9902 90.5098 35.8099 90.5098 34.3105V33.7021C90.5098 32.7451 90.6784 31.902 91.0156 31.1729C91.3529 30.4437 91.8337 29.8854 92.458 29.498C93.0869 29.1061 93.8161 28.9102 94.6455 28.9102C95.7939 28.9102 96.7191 29.2178 97.4209 29.833C98.1227 30.4482 98.5283 31.3118 98.6377 32.4238H96.5869C96.5368 31.7812 96.3568 31.3164 96.0469 31.0293C95.7415 30.7376 95.2744 30.5918 94.6455 30.5918C93.9619 30.5918 93.4492 30.8379 93.1074 31.3301C92.7702 31.8177 92.597 32.5765 92.5879 33.6064V34.3584C92.5879 35.4339 92.7497 36.2201 93.0732 36.7168C93.4014 37.2135 93.9163 37.4619 94.6182 37.4619C95.2516 37.4619 95.7233 37.3184 96.0332 37.0312C96.3477 36.7396 96.5277 36.2907 96.5732 35.6846H98.624ZM103.997 33.4561C103.728 33.4196 103.491 33.4014 103.286 33.4014C102.539 33.4014 102.049 33.6543 101.816 34.1602V39H99.8408V31.6035H101.707L101.762 32.4854C102.158 31.8063 102.707 31.4668 103.409 31.4668C103.628 31.4668 103.833 31.4964 104.024 31.5557L103.997 33.4561ZM104.4 35.2334C104.4 34.4997 104.542 33.8457 104.824 33.2715C105.107 32.6973 105.512 32.2529 106.041 31.9385C106.574 31.624 107.192 31.4668 107.894 31.4668C108.892 31.4668 109.705 31.7721 110.334 32.3828C110.967 32.9935 111.321 33.8229 111.394 34.8711L111.407 35.377C111.407 36.5117 111.09 37.4232 110.457 38.1113C109.824 38.7949 108.974 39.1367 107.907 39.1367C106.841 39.1367 105.989 38.7949 105.351 38.1113C104.717 37.4277 104.4 36.498 104.4 35.3223V35.2334ZM106.376 35.377C106.376 36.0788 106.508 36.6165 106.772 36.9902C107.037 37.3594 107.415 37.5439 107.907 37.5439C108.386 37.5439 108.759 37.3617 109.028 36.9971C109.297 36.6279 109.432 36.04 109.432 35.2334C109.432 34.5452 109.297 34.012 109.028 33.6338C108.759 33.2555 108.381 33.0664 107.894 33.0664C107.41 33.0664 107.037 33.2555 106.772 33.6338C106.508 34.0075 106.376 34.5885 106.376 35.377ZM119.057 36.3135L120.027 31.6035H121.935L120.048 39H118.394L116.992 34.3447L115.591 39H113.943L112.057 31.6035H113.964L114.928 36.3066L116.281 31.6035H117.71L119.057 36.3135Z" fill="black"/>
</svg>
